<?xml version="1.0" standalone="no"?>
<!DOCTYPE svg PUBLIC "-//W3C//DTD SVG 20010904//EN"
 "http://www.w3.org/TR/2001/REC-SVG-20010904/DTD/svg10.dtd">
<svg version="1.0" xmlns="http://www.w3.org/2000/svg"
 width="300.000000pt" height="300.000000pt" viewBox="0 0 300.000000 300.000000"
 preserveAspectRatio="xMidYMid meet">
<metadata>
Created by potrace 1.10, written by Peter Selinger 2001-2011
</metadata>
<g transform="translate(0.000000,300.000000) scale(0.100000,-0.100000)"
fill="#1808fd" stroke="none">
<path d="M1340 2724 c-14 -2 -42 -9 -63 -15 -21 -5 -51 -12 -68 -14 -17 -2
-37 -9 -45 -16 -8 -6 -14 -9 -14 -5 0 11 -145 -46 -220 -87 -41 -22 -100 -59
-130 -81 -116 -84 -291 -280 -345 -386 -56 -111 -70 -142 -92 -205 -20 -61
-33 -121 -49 -230 -15 -99 2 -391 26 -450 5 -11 14 -42 21 -70 6 -27 17 -61
24 -75 7 -14 25 -52 40 -85 77 -164 244 -357 402 -463 118 -80 259 -140 423
-183 80 -20 256 -30 355 -20 106 11 247 42 305 68 165 73 283 142 363 212 51
45 160 159 170 178 6 10 22 34 37 53 77 99 169 320 199 476 14 78 14 330 0
408 -59 311 -209 560 -452 747 -73 57 -242 151 -322 180 -54 19 -130 39 -149
39 -12 0 -27 5 -34 12 -11 11 -329 22 -382 12z m355 -40 c428 -74 777 -377
914 -792 30 -91 61 -274 61 -363 0 -80 -29 -253 -56 -341 -96 -302 -312 -558
-590 -697 -169 -85 -336 -124 -529 -124 -543 -1 -1015 379 -1136 913 -144 636
278 1278 921 1400 120 23 298 25 415 4z"/>
<path d="M1395 2623 c-216 -26 -375 -87 -549 -212 -174 -125 -319 -326 -390
-543 -84 -260 -61 -580 61 -822 139 -276 410 -498 697 -571 180 -46 390 -46
561 -1 423 111 743 467 805 895 16 103 8 320 -14 411 -80 331 -285 586 -591
736 -183 89 -399 129 -580 107z m320 -49 c91 -16 212 -61 315 -118 30 -16 57
-34 58 -38 2 -4 8 -8 13 -8 13 0 134 -102 180 -151 20 -21 47 -54 60 -73 13
-20 27 -36 32 -36 4 0 7 -6 7 -13 0 -8 9 -25 21 -38 11 -13 27 -39 35 -59 9
-19 20 -43 25 -53 35 -65 69 -175 88 -284 13 -68 16 -246 6 -308 -18 -114 -38
-188 -70 -264 -45 -106 -58 -129 -123 -219 -68 -94 -111 -140 -192 -205 -212
-172 -447 -247 -725 -233 -133 7 -150 10 -270 45 -64 19 -233 95 -245 110 -3
3 -23 18 -45 33 -22 14 -51 37 -65 50 -14 13 -36 31 -49 40 -37 26 -144 162
-193 247 -57 97 -103 216 -118 306 -7 39 -16 92 -21 118 -15 78 -11 173 7 191
9 10 13 24 9 36 -4 14 2 27 21 45 15 14 31 25 36 25 5 0 6 5 3 10 -3 6 0 10 8
10 7 0 24 11 37 25 35 38 14 30 -42 -15 -74 -59 -80 -54 -54 42 52 193 149
362 285 497 77 77 202 167 276 200 17 7 44 19 60 26 172 77 396 98 630 59z"/>
<path d="M806 1771 c23 -10 54 -35 70 -55 16 -20 32 -36 35 -36 3 0 30 23 60
51 43 41 47 48 22 33 -18 -10 -33 -21 -33 -25 0 -11 -51 -29 -63 -22 -7 4 -18
15 -26 26 -7 10 -29 25 -47 33 -50 21 -65 16 -18 -5z"/>
<path d="M1886 1765 l-37 -25 -21 20 c-25 23 -38 19 -14 -5 9 -9 16 -23 16
-31 0 -21 14 -17 40 11 13 14 29 25 36 25 6 0 14 7 18 15 7 20 5 19 -38 -10z"/>
<path d="M1990 1773 c31 -21 48 -41 61 -72 9 -22 11 -23 27 -7 9 9 33 30 52
46 19 16 32 31 29 34 -3 3 -14 -3 -25 -13 -46 -43 -59 -43 -104 -6 -23 19 -47
35 -53 35 -6 0 0 -8 13 -17z"/>
<path d="M2220 1765 c22 -23 25 -24 42 -8 24 22 23 26 -6 19 -14 -3 -28 -2
-31 4 -3 5 -11 10 -17 10 -6 0 -1 -11 12 -25z"/>
<path d="M2415 1780 c-19 -8 -19 -9 2 -9 12 -1 25 4 28 9 7 12 -2 12 -30 0z"/>
<path d="M636 1748 l17 -37 25 24 c14 14 29 25 33 25 5 0 9 5 9 11 0 6 -14 2
-32 -9 l-31 -20 -19 21 c-18 22 -18 21 -2 -15z"/>
<path d="M1615 1744 c14 -20 25 -45 25 -55 0 -15 10 -9 45 25 53 53 59 67 12
32 -43 -33 -49 -33 -70 4 -10 17 -22 30 -27 30 -5 0 2 -16 15 -36z"/>
<path d="M1928 1747 c-7 -7 -35 -27 -61 -45 l-48 -32 -8 23 c-5 12 -12 30 -15
40 -7 23 -26 21 -56 -6 -14 -12 -37 -30 -52 -40 -34 -21 -36 -40 -5 -32 39 10
46 -12 50 -151 l3 -129 2 134 c2 108 -1 138 -13 151 -14 15 -13 19 11 43 48
48 73 7 67 -109 -3 -50 -1 -74 5 -66 5 7 7 35 4 61 -4 43 -1 50 24 70 15 12
38 24 51 27 12 4 23 13 23 21 0 8 5 11 10 8 6 -3 10 -1 10 5 0 6 12 10 28 8
19 -2 32 -13 46 -39 l20 -37 -30 -25 -29 -26 -6 22 c-6 21 -6 22 -14 2 -5 -11
-22 -33 -38 -48 -32 -32 -29 -51 3 -22 20 18 21 18 41 -3 23 -26 29 -27 29 -7
0 8 -6 15 -14 15 -8 0 -17 7 -20 16 -5 12 -2 15 9 10 10 -3 30 7 52 27 35 32
35 34 23 68 -7 20 -27 45 -46 57 -40 26 -39 26 -56 9z"/>
<path d="M533 1708 c-59 -45 -65 -58 -28 -50 14 2 25 9 25 15 0 10 21 29 53
48 14 8 19 5 28 -18 7 -16 13 -23 16 -15 5 13 -22 62 -35 62 -4 0 -31 -19 -59
-42z"/>
<path d="M683 1707 c-51 -41 -71 -67 -53 -67 5 0 36 22 70 49 57 46 64 49 88
38 15 -7 36 -20 46 -29 11 -10 23 -18 26 -18 11 0 30 -74 31 -121 2 -44 2 -44
8 -9 13 67 -3 111 -55 158 -63 55 -92 55 -161 -1z"/>
<path d="M985 1709 c-53 -43 -70 -67 -41 -56 10 4 24 7 32 7 8 0 13 3 13 8 -4
23 4 38 26 48 31 15 46 -1 52 -53 6 -52 13 -54 13 -4 0 38 -23 91 -39 91 -3 0
-29 -18 -56 -41z"/>
<path d="M1152 1735 c-9 -17 -14 -18 -31 -7 -12 6 -24 12 -27 12 -4 0 -2 -6 4
-12 11 -13 12 -18 12 -42 0 -9 12 -3 30 16 17 17 29 35 27 41 -2 7 -9 3 -15
-8z"/>
<path d="M1185 1709 c-58 -48 -68 -65 -33 -56 26 7 41 -11 51 -58 4 -17 5 -17
6 3 0 13 -7 37 -16 53 -16 28 -16 29 11 54 51 48 64 28 69 -106 l3 -104 2 110
c1 107 -8 146 -34 145 -5 -1 -31 -19 -59 -41z"/>
<path d="M1554 1735 c-4 -8 -10 -15 -16 -15 -12 0 -78 -53 -78 -63 0 -4 11 -5
24 -1 13 3 27 1 30 -5 4 -6 13 -11 19 -11 7 0 4 5 -5 11 -23 13 -23 20 3 48
15 16 28 21 45 17 26 -7 31 3 12 22 -16 16 -27 15 -34 -3z"/>
<path d="M2128 1707 c-27 -24 -48 -46 -48 -49 0 -14 50 7 55 23 9 26 57 58 63
41 2 -6 11 -12 19 -12 14 0 14 3 -2 20 -25 27 -33 25 -87 -23z"/>
<path d="M2258 1721 c-34 -34 -35 -41 -7 -41 15 0 19 5 15 15 -4 11 5 21 28
32 38 18 86 11 86 -12 0 -8 2 -15 5 -15 14 0 65 32 65 40 0 14 -16 12 -32 -3
-10 -11 -16 -11 -24 -2 -6 6 -33 12 -60 13 -41 1 -53 -3 -76 -27z"/>
<path d="M2436 1695 c-65 -62 -65 -73 0 -19 37 30 73 74 61 74 -1 0 -29 -25
-61 -55z"/>
<path d="M1456 1706 c-40 -38 -42 -44 -21 -72 14 -18 15 -17 9 10 -6 26 -2 34
32 63 21 18 34 33 27 33 -6 0 -28 -15 -47 -34z"/>
<path d="M1602 1545 l2 -160 6 140 c3 77 2 149 -2 160 -3 11 -6 -52 -6 -140z"/>
<path d="M2290 1678 c0 -5 3 -8 8 -9 4 0 19 -2 34 -4 15 -2 32 2 38 9 8 11 1
13 -35 12 -25 0 -45 -4 -45 -8z"/>
<path d="M747 1656 c15 -13 30 -22 32 -20 7 7 -31 44 -46 44 -8 0 -2 -10 14
-24z"/>
<path d="M677 1642 c-12 -13 -16 -44 -19 -130 -3 -106 -2 -112 16 -112 16 0
17 3 8 12 -19 19 -16 192 3 208 23 19 42 5 67 -46 12 -26 24 -42 26 -35 3 8 1
16 -4 20 -5 3 -11 15 -12 26 -4 20 -49 75 -62 75 -4 0 -14 -8 -23 -18z"/>
<path d="M1858 1646 c-17 -13 -25 -36 -12 -36 4 0 13 8 20 17 7 10 16 14 21
10 4 -5 -4 -19 -18 -30 -27 -23 -45 -57 -29 -57 15 0 80 74 80 93 0 21 -37 23
-62 3z"/>
<path d="M2254 1613 c1 -22 7 -38 14 -37 7 1 36 2 65 4 28 1 41 4 27 7 -85 13
-89 14 -83 28 3 8 9 12 14 9 5 -3 9 -1 9 4 0 10 -23 22 -40 22 -5 0 -8 -17 -6
-37z"/>
<path d="M495 1627 c-4 -8 -1 -26 7 -39 l13 -23 3 29 c4 33 -14 59 -23 33z"/>
<path d="M942 1627 c-6 -7 -9 -38 -7 -69 2 -43 -2 -66 -17 -95 -32 -59 -82
-133 -90 -133 -12 0 -97 -64 -97 -73 -2 -16 63 28 114 78 28 28 59 68 69 90
11 22 27 50 37 63 13 18 17 36 14 84 -5 68 -7 74 -23 55z"/>
<path d="M1111 1517 c-1 -88 2 -126 10 -122 5 4 19 -1 30 -11 18 -16 19 -16
18 2 -2 30 -16 81 -18 63 0 -9 -8 -20 -17 -23 -13 -5 -15 3 -11 62 3 37 2 87
-3 112 -6 34 -8 14 -9 -83z"/>
<path d="M1474 1625 c-3 -8 1 -24 9 -35 14 -21 15 -20 15 14 0 36 -14 48 -24
21z"/>
<path d="M1640 1521 c0 -105 2 -121 16 -121 9 0 23 -8 30 -17 11 -15 13 -3 14
81 0 110 -7 124 -15 26 -4 -64 -9 -79 -22 -66 -9 8 -13 127 -6 155 7 25 30 28
36 4 2 -10 4 -1 4 20 1 36 -9 48 -22 27 -5 -8 -11 -7 -21 1 -12 10 -14 -7 -14
-110z"/>
<path d="M2026 1598 c-34 -33 -37 -38 -19 -38 47 0 98 -103 74 -148 -11 -21
-134 -132 -166 -150 -16 -9 -17 -11 -3 -12 17 0 38 16 122 92 28 26 55 48 60
48 4 0 6 -18 4 -40 -2 -22 0 -40 4 -40 5 0 8 6 9 13 1 15 1 310 0 316 -1 2 -7
-1 -14 -8 -8 -6 -18 -7 -23 -3 -5 4 -27 -10 -48 -30z m74 -27 c0 -55 -9 -63
-36 -32 -28 34 -23 61 12 61 20 0 24 -5 24 -29z"/>
<path d="M1133 1614 c-3 -9 0 -20 8 -25 21 -13 24 -11 27 16 2 28 -25 35 -35
9z"/>
<path d="M791 1603 c0 -5 4 -17 9 -28 8 -18 9 -17 9 8 1 15 -3 27 -9 27 -5 0
-10 -3 -9 -7z"/>
<path d="M1074 1520 c0 -52 1 -74 3 -47 2 26 2 68 0 95 -2 26 -3 4 -3 -48z"/>
<path d="M2151 1575 c-7 -68 -5 -233 2 -226 4 4 6 64 4 132 -1 68 -4 111 -6
94z"/>
<path d="M500 1467 c0 -53 3 -97 8 -97 8 0 7 179 -2 187 -3 4 -6 -37 -6 -90z"/>
<path d="M554 1475 c0 -49 1 -71 3 -48 2 23 2 64 0 90 -2 26 -3 8 -3 -42z"/>
<path d="M1153 1515 c0 -27 2 -38 4 -22 2 15 2 37 0 50 -2 12 -4 0 -4 -28z"/>
<path d="M1204 1470 c0 -52 1 -74 3 -47 2 26 2 68 0 95 -2 26 -3 4 -3 -48z"/>
<path d="M1488 1498 c-3 -36 -10 -64 -17 -66 -9 -3 -8 -10 4 -29 19 -28 17
-32 -53 -96 -23 -22 -40 -42 -38 -45 3 -2 22 12 43 32 43 40 58 44 72 19 5
-10 12 -15 16 -12 3 4 -1 13 -9 21 -9 9 -11 20 -6 28 5 8 6 18 3 23 -3 6 -5
50 -4 98 1 49 0 89 -3 89 -2 0 -6 -28 -8 -62z"/>
<path d="M1533 1510 c0 -30 2 -43 4 -27 2 15 2 39 0 55 -2 15 -4 2 -4 -28z"/>
<path d="M820 1519 c0 -16 4 -28 9 -25 8 5 3 56 -5 56 -2 0 -4 -14 -4 -31z"/>
<path d="M2340 1541 c0 -5 10 -7 23 -3 22 5 22 5 3 -16 -10 -12 -23 -19 -27
-16 -5 3 -9 0 -9 -5 0 -16 22 -13 48 5 32 22 28 44 -8 44 -16 0 -30 -4 -30 -9z"/>
<path d="M1843 1520 c-32 -26 -30 -47 2 -26 28 18 39 21 30 6 -3 -5 2 -10 11
-10 16 0 15 2 -2 23 -10 12 -19 23 -19 24 0 1 -10 -7 -22 -17z"/>
<path d="M1990 1535 c0 -10 62 -66 67 -61 6 6 -47 66 -59 66 -4 0 -8 -2 -8 -5z"/>
<path d="M787 1458 c-7 -47 -12 -57 -30 -61 -19 -3 -20 -4 -5 -11 31 -14 49
17 46 76 l-3 53 -8 -57z"/>
<path d="M881 1489 c0 -9 -10 -24 -21 -34 -19 -18 -20 -17 -20 3 0 12 -4 22
-9 22 -6 0 -9 -18 -8 -41 1 -36 -4 -45 -42 -81 -45 -41 -104 -68 -131 -61 -9
3 -8 0 3 -7 26 -17 115 21 159 68 47 50 81 108 75 129 -4 15 -5 15 -6 2z"/>
<path d="M2377 1475 c-15 -14 -23 -25 -18 -25 6 0 20 9 30 19 11 11 23 16 27
13 4 -4 4 -1 0 6 -9 15 -6 16 -39 -13z"/>
<path d="M1940 1465 c18 -14 36 -22 39 -19 8 7 -40 44 -58 44 -8 0 0 -11 19
-25z"/>
<path d="M1851 1460 c-19 -11 -6 -60 17 -60 9 0 30 -7 46 -15 39 -20 46 -19
46 9 0 22 -35 56 -64 60 -6 1 -16 5 -21 8 -6 4 -17 3 -24 -2z m60 -30 c24 -13
25 -31 2 -26 -32 6 -53 18 -47 27 7 12 21 11 45 -1z"/>
<path d="M1800 1427 c0 -20 4 -37 9 -37 4 0 7 14 5 32 -6 45 -14 48 -14 5z"/>
<path d="M2040 1438 c-13 -27 -40 -39 -40 -18 0 6 -5 10 -12 10 -9 0 -9 -3 -1
-11 9 -9 8 -19 -3 -40 -8 -16 -19 -29 -23 -29 -5 0 -22 -11 -38 -24 -16 -13
-42 -26 -58 -28 -25 -4 -27 -6 -12 -12 12 -6 32 -2 57 9 49 22 153 130 147
153 -3 13 -7 11 -17 -10z"/>
<path d="M2259 1458 c0 -2 -2 -15 -3 -30 l-2 -28 73 0 c40 0 73 4 73 8 0 4
-23 7 -52 6 -29 -2 -59 1 -67 6 -10 6 -11 10 -3 10 17 0 15 30 -3 30 -8 0 -15
-1 -16 -2z"/>
<path d="M1003 1395 c0 -22 2 -30 4 -17 2 12 2 30 0 40 -3 9 -5 -1 -4 -23z"/>
<path d="M1315 1419 c-4 -6 -5 -13 -2 -15 8 -8 115 -10 123 -1 12 12 -4 20
-23 12 -22 -10 -54 -7 -67 6 -13 12 -23 11 -31 -2z"/>
<path d="M1423 1375 c-21 -15 -66 -15 -114 0 -14 5 -19 3 -15 -3 3 -6 24 -13
46 -17 51 -9 52 -31 3 -53 -33 -14 -35 -17 -16 -20 16 -2 39 11 78 45 52 45
65 63 47 63 -4 0 -17 -7 -29 -15z"/>
<path d="M1534 1360 c3 -19 13 -44 22 -57 l15 -24 51 43 c38 33 46 44 33 46
-11 3 -30 -11 -49 -33 l-32 -37 -12 27 c-7 14 -12 32 -12 40 0 8 -5 17 -12 21
-8 5 -9 -2 -4 -26z"/>
<path d="M2395 1375 c-16 -7 -30 -17 -30 -22 1 -23 -57 -59 -87 -54 -5 0 -8
-3 -8 -9 0 -5 12 -10 28 -10 18 1 46 18 87 55 61 56 63 64 10 40z"/>
<path d="M2455 1366 c-11 -12 -42 -40 -69 -64 -27 -23 -47 -44 -44 -47 3 -3
27 15 54 40 27 24 52 45 56 45 8 0 32 40 26 44 -2 1 -12 -7 -23 -18z"/>
<path d="M1090 1370 c-1 -8 -10 -26 -21 -39 l-20 -24 -24 23 c-28 26 -33 16
-9 -18 21 -30 32 -28 84 20 25 22 38 38 29 35 -9 -3 -22 0 -28 6 -8 8 -11 7
-11 -3z"/>
<path d="M1201 1348 c0 -15 -5 -30 -11 -33 -16 -10 -12 -35 4 -29 20 7 24 23
15 59 -7 30 -7 30 -8 3z"/>
<path d="M1730 1347 c0 -14 -4 -29 -10 -32 -5 -3 -10 -13 -10 -21 0 -13 4 -12
30 1 30 15 42 29 17 19 -8 -3 -13 5 -15 22 -3 36 -12 44 -12 11z"/>
<path d="M498 1330 c-4 -24 -2 -27 9 -19 15 13 17 35 4 43 -5 3 -11 -8 -13
-24z"/>
<path d="M700 1350 c19 -13 30 -13 30 0 0 6 -10 10 -22 10 -19 0 -20 -2 -8
-10z"/>
<path d="M1124 1320 c-42 -39 -49 -59 -13 -37 15 9 21 8 33 -8 8 -11 18 -17
22 -12 4 4 2 7 -4 7 -15 0 -16 32 -1 47 6 6 9 18 7 26 -2 12 -13 6 -44 -23z"/>
<path d="M1674 1338 c-12 -12 -37 -35 -55 -50 -18 -15 -30 -30 -27 -33 2 -3
15 4 28 15 29 25 28 25 59 -2 l24 -23 -16 24 c-15 23 -15 26 -1 42 9 10 14 25
12 34 -2 14 -6 13 -24 -7z"/>
<path d="M1881 1357 c2 -1 12 -9 22 -16 14 -12 17 -11 17 3 0 10 -8 16 -22 16
-12 0 -19 -1 -17 -3z"/>
<path d="M536 1314 c-11 -27 -7 -37 9 -24 16 14 20 40 6 40 -5 0 -12 -7 -15
-16z"/>
<path d="M2137 1309 c-4 -13 -5 -24 -4 -24 1 -1 18 4 37 11 23 9 28 13 15 13
-12 1 -26 6 -32 12 -7 7 -12 4 -16 -12z"/>
<path d="M982 1288 c8 -12 21 -24 28 -26 8 -3 6 5 -6 21 -23 32 -42 36 -22 5z"/>
<path d="M554 1261 c4 -6 11 -9 15 -7 4 3 24 1 45 -4 22 -5 35 -5 30 0 -15 15
-98 25 -90 11z"/>
<path d="M1210 1260 c0 -5 6 -10 14 -10 8 0 18 5 21 10 3 6 -3 10 -14 10 -12
0 -21 -4 -21 -10z"/>
<path d="M1736 1262 c-3 -5 19 -8 47 -9 36 0 46 2 32 8 -27 10 -73 11 -79 1z"/>
<path d="M2170 1260 c-13 -9 -13 -10 0 -10 8 0 22 5 30 10 13 9 13 10 0 10 -8
0 -22 -5 -30 -10z"/>
</g>
</svg>
