<?xml version="1.0" standalone="no"?>
<!DOCTYPE svg PUBLIC "-//W3C//DTD SVG 20010904//EN"
 "http://www.w3.org/TR/2001/REC-SVG-20010904/DTD/svg10.dtd">
<svg version="1.0" xmlns="http://www.w3.org/2000/svg"
 width="900.000000pt" height="900.000000pt" viewBox="0 0 900.000000 900.000000"
 preserveAspectRatio="xMidYMid meet">
<metadata>
Created by potrace 1.10, written by Peter Selinger 2001-2011
</metadata>
<g transform="translate(0.000000,900.000000) scale(0.100000,-0.100000)"
fill="#1808fd" stroke="none">
<path d="M4125 8169 c-128 -11 -273 -35 -325 -53 -25 -9 -55 -16 -66 -16 -12
0 -39 -7 -60 -16 -20 -9 -51 -14 -68 -11 -33 5 -105 -23 -126 -49 -8 -9 -22
-13 -35 -10 -12 3 -46 -3 -76 -14 -29 -11 -61 -20 -70 -20 -9 0 -37 -11 -60
-25 -24 -14 -58 -25 -76 -25 -17 0 -34 -4 -37 -9 -3 -4 -27 -16 -53 -26 -59
-21 -233 -105 -253 -121 -8 -7 -51 -31 -95 -54 -44 -24 -96 -54 -114 -68 -19
-14 -42 -27 -51 -27 -9 -1 -45 -24 -80 -51 -36 -27 -90 -67 -122 -88 -31 -21
-79 -60 -108 -86 -29 -26 -77 -65 -107 -86 -30 -21 -59 -48 -63 -60 -5 -12
-26 -35 -47 -50 -59 -44 -243 -231 -243 -247 0 -7 -19 -32 -43 -55 -70 -67
-96 -99 -102 -125 -4 -13 -20 -34 -36 -46 -16 -12 -39 -40 -50 -64 -12 -23
-39 -62 -60 -88 -22 -25 -39 -50 -39 -55 0 -6 -10 -20 -23 -32 -26 -24 -74
-115 -82 -155 -3 -15 -14 -36 -25 -47 -11 -11 -22 -30 -25 -43 -4 -13 -17 -36
-31 -52 -13 -15 -24 -33 -24 -39 0 -6 -11 -33 -24 -61 -52 -110 -66 -143 -66
-150 0 -5 -7 -16 -16 -26 -8 -9 -22 -43 -30 -76 -8 -32 -26 -87 -39 -123 -29
-81 -55 -172 -55 -197 0 -10 -6 -30 -14 -45 -8 -15 -17 -62 -21 -105 -3 -43
-16 -106 -27 -141 -13 -41 -21 -96 -23 -160 -1 -65 -8 -110 -19 -136 -15 -32
-16 -54 -10 -125 4 -47 8 -196 8 -331 2 -266 17 -451 46 -545 10 -33 21 -95
24 -138 4 -57 11 -86 26 -104 11 -14 20 -34 20 -45 0 -27 29 -143 51 -203 10
-27 23 -70 30 -95 6 -25 23 -63 38 -86 15 -22 31 -54 34 -72 4 -17 20 -61 37
-96 16 -36 30 -68 30 -72 0 -4 11 -22 25 -40 14 -18 25 -43 25 -56 0 -13 5
-29 10 -34 13 -13 100 -165 100 -175 0 -3 11 -14 25 -23 14 -9 25 -25 25 -36
0 -11 11 -27 24 -36 14 -8 28 -30 32 -47 3 -18 20 -46 38 -64 42 -42 80 -91
99 -128 8 -16 36 -50 62 -75 26 -25 55 -61 65 -80 10 -19 33 -46 51 -60 19
-14 49 -43 69 -65 69 -77 151 -155 164 -155 7 0 25 -18 40 -40 14 -22 33 -40
41 -40 8 0 19 -9 24 -19 6 -10 24 -24 41 -29 20 -7 30 -18 30 -31 0 -13 16
-29 46 -47 26 -15 57 -38 70 -51 13 -12 31 -23 42 -23 10 0 31 -14 47 -30 16
-17 34 -30 42 -30 7 0 27 -13 45 -28 58 -49 126 -93 228 -145 217 -112 268
-137 277 -137 11 0 79 -29 188 -79 33 -16 103 -41 155 -56 52 -15 122 -36 156
-45 33 -10 83 -21 110 -25 27 -4 69 -16 94 -25 25 -10 91 -21 150 -25 58 -4
132 -13 165 -21 33 -7 69 -13 80 -13 11 0 79 -5 150 -11 74 -7 194 -9 280 -6
179 7 425 28 442 39 6 4 47 12 90 17 89 10 118 15 188 35 28 8 77 19 110 26
120 23 305 81 344 107 14 10 66 31 114 47 48 15 91 33 95 40 4 6 25 19 47 27
121 49 283 136 407 219 46 31 108 72 138 92 121 79 211 150 296 234 23 23 56
49 73 58 17 8 31 19 31 23 0 13 186 202 198 202 7 0 12 6 12 14 0 8 32 47 70
86 39 40 85 96 103 125 45 76 140 207 166 229 11 11 21 26 21 35 0 9 11 32 23
51 49 72 147 241 147 253 0 14 31 76 64 132 50 82 66 115 66 136 0 12 13 45
29 73 16 28 31 67 35 87 4 20 24 90 45 155 60 185 71 230 77 302 3 37 11 85
19 107 25 74 35 139 45 293 21 323 5 768 -35 932 -8 36 -19 99 -24 140 -9 75
-29 165 -56 251 -8 26 -15 54 -15 62 0 8 -15 53 -33 99 -18 45 -44 112 -56
148 -56 158 -68 187 -94 212 -15 16 -27 38 -27 53 0 24 -46 120 -75 155 -7 8
-25 42 -41 75 -42 88 -138 236 -191 293 -7 7 -13 18 -13 23 0 10 -80 120 -138
189 -16 19 -35 45 -43 58 -8 12 -19 22 -26 22 -7 0 -20 12 -30 28 -50 80 -407
404 -561 508 -37 26 -69 50 -70 55 -5 12 -102 75 -130 83 -12 4 -22 11 -22 16
0 5 -39 28 -87 51 -49 24 -90 46 -93 50 -3 3 -41 25 -85 49 -44 23 -84 46 -90
50 -5 4 -29 14 -53 21 -23 7 -47 18 -53 26 -6 7 -18 13 -27 13 -8 0 -23 6 -31
14 -9 7 -43 18 -76 25 -33 6 -73 20 -88 32 -15 11 -53 24 -83 29 -31 5 -61 14
-68 19 -21 18 -99 39 -221 61 -66 11 -138 30 -160 40 -41 20 -140 35 -345 50
-140 11 -571 10 -695 -1z m830 -103 c197 -34 263 -46 325 -61 36 -8 88 -20
115 -25 51 -10 114 -31 172 -56 17 -8 38 -14 47 -14 15 0 65 -19 119 -46 16
-8 37 -14 47 -14 10 0 22 -4 25 -10 3 -5 12 -10 19 -10 33 0 425 -202 488
-251 20 -16 40 -29 44 -29 6 0 93 -53 119 -72 358 -272 519 -422 738 -688 55
-67 127 -166 186 -257 39 -59 75 -113 80 -119 34 -41 251 -471 251 -497 0 -6
6 -24 14 -38 7 -15 23 -55 35 -90 12 -35 26 -73 30 -84 10 -23 62 -196 81
-270 17 -67 39 -185 50 -268 5 -38 14 -92 19 -120 33 -165 41 -580 16 -807
-21 -184 -55 -390 -79 -475 -8 -27 -22 -79 -31 -115 -30 -108 -107 -334 -121
-355 -8 -11 -14 -26 -14 -35 0 -15 -169 -359 -216 -440 -52 -88 -119 -187
-221 -323 -57 -76 -103 -141 -103 -145 0 -4 -12 -19 -27 -32 -16 -14 -75 -76
-133 -138 -120 -129 -414 -392 -438 -392 -5 0 -15 -7 -22 -15 -7 -9 -31 -28
-54 -43 -23 -16 -65 -45 -94 -65 -120 -85 -321 -198 -457 -258 -27 -12 -78
-34 -112 -50 -34 -16 -69 -29 -77 -29 -8 0 -18 -4 -21 -10 -3 -5 -14 -10 -23
-10 -9 0 -28 -6 -42 -13 -50 -26 -131 -51 -358 -112 -365 -97 -937 -131 -1267
-74 -33 6 -94 14 -135 18 -91 10 -260 44 -355 72 -148 44 -271 83 -295 96 -14
7 -33 13 -42 13 -9 0 -19 4 -22 9 -3 5 -29 16 -58 26 -29 9 -98 38 -153 64
-55 26 -107 51 -115 55 -8 3 -28 14 -45 24 -16 10 -57 33 -90 51 -246 135
-547 370 -788 616 -86 88 -235 262 -291 340 -70 98 -131 187 -146 213 -8 15
-25 41 -36 57 -12 17 -34 55 -50 85 -15 30 -45 83 -66 118 -21 34 -38 65 -38
69 0 3 -16 40 -36 82 -95 202 -124 281 -196 531 -6 19 -17 53 -24 75 -8 23
-14 53 -14 69 0 15 -6 54 -14 85 -54 220 -69 409 -63 786 5 310 9 360 41 530
8 44 20 112 26 150 7 39 16 78 21 87 5 10 14 37 19 60 17 80 30 133 39 153 16
36 71 191 71 199 0 5 9 30 21 55 98 216 145 313 173 354 14 21 26 43 26 49 0
6 14 34 32 62 61 98 183 281 194 291 5 6 30 37 55 70 127 172 369 427 534 562
117 96 301 228 373 269 20 11 57 33 82 49 80 52 253 142 395 205 94 41 339
129 363 130 8 0 28 7 45 14 40 19 147 46 179 46 13 0 32 6 43 14 11 7 55 16
97 19 43 3 83 9 90 14 7 4 69 15 138 25 165 22 764 18 905 -6z"/>
<path d="M4190 7859 c-197 -24 -240 -29 -310 -42 -97 -19 -201 -42 -270 -62
-30 -9 -71 -20 -90 -25 -19 -5 -60 -19 -90 -30 -30 -12 -82 -31 -115 -42 -73
-25 -102 -37 -182 -77 -34 -17 -67 -31 -74 -31 -6 0 -37 -15 -68 -34 -31 -19
-86 -50 -123 -69 -37 -19 -81 -45 -97 -56 -16 -12 -32 -21 -36 -21 -9 0 -191
-126 -231 -159 -17 -14 -44 -35 -60 -46 -54 -38 -160 -133 -269 -242 -116
-117 -136 -138 -200 -218 -22 -27 -45 -54 -51 -60 -47 -45 -264 -368 -314
-468 -17 -34 -35 -69 -40 -77 -25 -40 -140 -292 -140 -306 0 -10 -12 -42 -27
-73 -14 -31 -29 -69 -34 -86 -4 -16 -21 -77 -39 -135 -92 -301 -140 -684 -127
-1000 7 -167 22 -335 36 -400 5 -25 14 -74 20 -110 20 -123 32 -185 40 -205 9
-23 28 -93 40 -147 5 -21 13 -43 18 -50 6 -7 14 -29 18 -48 4 -19 18 -59 31
-89 13 -29 24 -62 24 -73 0 -10 9 -36 20 -56 11 -20 42 -84 70 -142 50 -106
92 -184 146 -275 16 -27 34 -57 39 -67 25 -43 151 -226 171 -248 58 -65 104
-122 104 -129 0 -13 271 -281 371 -367 105 -90 189 -155 297 -229 67 -47 90
-61 182 -115 19 -11 42 -24 50 -29 8 -5 49 -26 90 -47 41 -20 82 -41 90 -45
30 -17 146 -67 170 -74 14 -4 30 -11 35 -15 11 -9 47 -23 155 -59 36 -12 72
-26 81 -31 9 -5 34 -11 55 -15 40 -6 124 -28 183 -47 19 -6 60 -14 90 -18 31
-4 108 -18 171 -31 108 -22 137 -24 485 -24 395 0 363 -3 655 57 184 38 378
88 420 108 8 4 53 22 100 41 74 28 181 75 260 112 14 6 47 24 73 39 26 16 53
28 58 28 6 0 23 8 37 19 15 10 53 32 84 49 31 16 76 43 98 58 44 30 208 148
225 162 119 93 172 140 274 239 68 65 148 149 179 187 31 38 85 102 120 143
34 41 62 77 62 81 0 4 14 22 30 41 17 18 30 38 30 43 0 6 13 27 29 47 29 37
141 217 141 227 0 4 23 46 50 95 28 49 50 97 50 108 0 10 7 21 15 25 8 3 15
14 15 25 0 10 11 39 25 62 14 24 25 50 25 57 0 6 15 51 34 100 18 48 45 123
59 167 24 76 30 100 62 255 7 36 18 85 24 110 6 25 11 63 11 85 0 22 7 72 15
110 8 39 17 156 21 260 9 289 -14 562 -68 815 -11 52 -26 122 -33 155 -7 33
-20 80 -29 105 -10 25 -21 59 -26 75 -4 17 -20 59 -34 94 -14 36 -26 71 -26
79 0 7 -15 46 -34 85 -18 40 -41 89 -50 109 -9 20 -21 40 -26 43 -6 3 -10 14
-10 23 0 17 -16 51 -58 122 -11 19 -33 58 -48 85 -23 43 -130 212 -152 240 -4
6 -30 39 -57 75 -27 36 -62 81 -79 101 -17 19 -49 57 -71 85 -50 62 -287 297
-341 338 -23 17 -74 58 -114 91 -92 76 -221 167 -283 200 -27 14 -76 43 -110
63 -34 21 -98 55 -142 76 -44 21 -87 43 -95 48 -8 4 -35 18 -60 29 -25 11 -57
27 -72 35 -14 7 -33 14 -41 14 -8 0 -28 7 -43 15 -16 8 -36 15 -45 15 -9 0
-19 3 -22 6 -16 17 -200 74 -312 99 -44 9 -96 21 -115 26 -182 50 -762 84
-980 58z m665 -100 c55 -5 138 -16 185 -24 47 -9 110 -20 140 -25 94 -16 134
-26 157 -38 12 -7 33 -12 47 -12 33 0 117 -28 137 -46 8 -8 40 -18 69 -24 30
-6 71 -22 91 -35 20 -14 58 -34 85 -44 91 -34 229 -98 255 -119 17 -13 91 -55
171 -95 26 -13 61 -38 77 -56 17 -18 35 -30 41 -26 14 9 69 -25 76 -47 3 -10
10 -18 15 -18 6 0 36 -24 67 -54 31 -29 71 -62 87 -72 34 -21 72 -55 216 -197
54 -53 99 -102 99 -107 0 -5 9 -12 20 -15 11 -3 23 -17 26 -30 3 -13 21 -36
40 -50 19 -14 34 -34 34 -43 0 -10 9 -23 20 -30 11 -7 34 -34 50 -61 17 -27
37 -52 45 -55 8 -3 15 -12 15 -21 0 -30 52 -115 68 -113 11 2 21 -10 30 -37 7
-22 22 -49 33 -61 10 -11 19 -27 19 -36 0 -9 15 -34 34 -56 22 -28 35 -55 39
-86 4 -29 16 -57 32 -74 14 -15 25 -30 25 -34 0 -5 26 -74 58 -156 64 -161 85
-227 103 -317 7 -33 16 -64 20 -70 6 -9 24 -81 49 -195 53 -251 65 -702 25
-985 -14 -97 -26 -176 -35 -220 -5 -27 -13 -76 -19 -107 -8 -50 -18 -91 -61
-243 -8 -31 -96 -248 -131 -322 -10 -24 -19 -48 -19 -55 0 -7 -12 -31 -25 -53
-14 -22 -25 -45 -25 -51 0 -7 -18 -42 -41 -79 -22 -37 -50 -89 -61 -114 -10
-25 -28 -55 -38 -66 -36 -37 -77 -90 -90 -115 -23 -43 -210 -290 -221 -290 -5
0 -19 -16 -31 -35 -11 -20 -34 -43 -50 -51 -18 -9 -28 -21 -24 -29 3 -8 -9
-22 -30 -34 -19 -11 -34 -26 -34 -33 0 -14 -29 -39 -316 -272 -18 -15 -36 -26
-41 -26 -5 0 -20 -10 -33 -22 -25 -25 -177 -122 -252 -163 -27 -14 -48 -30
-48 -35 0 -6 -7 -10 -16 -10 -8 0 -32 -9 -52 -19 -108 -57 -335 -157 -377
-167 -16 -3 -46 -15 -65 -25 -19 -10 -51 -20 -70 -23 -19 -2 -84 -19 -145 -36
-60 -17 -139 -36 -175 -41 -36 -5 -99 -16 -140 -24 -41 -8 -142 -20 -225 -25
-172 -12 -522 -11 -545 1 -9 4 -63 10 -120 12 -123 6 -296 36 -405 70 -27 9
-99 30 -160 47 -60 18 -133 40 -160 51 -28 10 -57 19 -66 19 -8 0 -19 4 -25 9
-5 5 -38 19 -72 32 -35 12 -66 28 -69 36 -3 7 -14 13 -25 13 -24 0 -81 29 -91
46 -4 8 -19 14 -32 14 -15 0 -40 15 -62 35 -20 19 -46 35 -58 35 -31 1 -85 34
-98 60 -8 16 -26 27 -56 35 -29 7 -53 21 -70 43 -15 17 -34 32 -43 32 -8 0
-27 10 -41 23 -14 12 -51 45 -83 72 -33 28 -72 64 -89 81 -16 17 -49 43 -72
57 -50 32 -125 103 -143 137 -7 14 -35 45 -62 69 -27 24 -56 57 -64 73 -8 16
-42 56 -75 89 -32 32 -59 63 -59 69 0 5 -13 24 -29 42 -15 18 -38 51 -50 73
-12 22 -36 60 -54 85 -19 25 -38 59 -44 75 -6 17 -26 53 -45 81 -32 48 -102
183 -136 264 -8 19 -18 43 -23 52 -5 10 -9 22 -9 28 0 6 -9 29 -19 53 -11 23
-29 71 -41 107 -13 36 -31 83 -42 105 -11 22 -24 69 -29 105 -18 129 -28 176
-43 206 -9 17 -18 70 -22 120 -3 49 -15 138 -26 197 -17 93 -19 141 -16 336 3
245 7 261 55 261 35 0 38 22 9 81 -23 50 -24 53 -8 75 9 13 25 24 35 24 10 0
27 16 38 35 12 19 25 35 31 35 14 0 88 53 88 63 0 5 -7 15 -15 23 -17 17 -39
9 -67 -25 -10 -12 -27 -21 -38 -21 -11 0 -20 -4 -20 -8 0 -5 -6 -17 -14 -27
-12 -16 -16 -17 -30 -6 -24 20 -20 97 9 191 14 44 28 97 31 118 5 44 22 99 39
127 7 11 18 43 25 70 22 85 156 401 186 435 7 8 22 38 33 66 11 29 33 71 49
95 101 151 139 209 162 252 15 26 59 81 98 122 40 40 72 81 72 90 0 18 203
222 263 265 19 14 52 46 74 72 21 26 47 50 57 54 10 3 38 24 62 46 24 22 57
48 72 57 65 37 97 57 126 82 31 26 50 38 173 106 34 19 67 40 73 48 7 8 21 15
31 15 10 0 34 14 52 30 19 17 44 30 55 30 12 0 31 4 44 9 13 5 49 19 81 31 31
12 57 26 57 30 0 9 46 30 68 30 9 0 44 13 78 29 34 16 85 32 115 36 30 4 82
18 115 30 34 13 88 26 120 30 64 6 137 22 169 35 22 9 129 19 330 30 148 8
431 3 580 -11z"/>
<path d="M2230 5361 c0 -10 30 -24 37 -17 3 3 2 9 -2 15 -8 13 -35 15 -35 2z"/>
<path d="M2293 5354 c-8 -21 15 -34 49 -27 19 4 35 0 48 -12 11 -10 41 -27 67
-40 57 -26 189 -152 223 -212 13 -24 27 -43 31 -43 19 0 59 24 59 35 0 7 28
36 63 65 34 29 65 61 69 71 4 11 21 22 39 26 17 3 33 13 36 22 3 9 24 33 47
53 27 25 35 38 25 38 -29 0 -110 -52 -119 -76 -5 -13 -16 -24 -23 -24 -8 0
-34 -18 -58 -40 -24 -22 -50 -40 -57 -40 -7 0 -20 -9 -29 -20 -18 -20 -63 -28
-63 -10 0 5 -13 16 -30 25 -16 9 -30 20 -30 27 0 12 -88 100 -123 122 -18 12
-199 76 -214 76 -2 0 -6 -7 -10 -16z"/>
<path d="M1625 5306 c-88 -66 -104 -84 -85 -96 8 -5 24 -3 40 5 28 15 140 124
140 137 0 18 -28 4 -95 -46z"/>
<path d="M5716 5330 c-22 -17 -44 -30 -49 -30 -10 0 -59 -37 -93 -70 -24 -24
-46 -19 -69 16 -8 13 -21 24 -28 24 -7 0 -23 14 -35 30 -24 31 -62 41 -62 15
0 -8 17 -25 38 -39 27 -17 41 -36 55 -74 9 -27 17 -57 17 -66 0 -9 3 -16 6
-16 15 0 75 44 130 95 32 30 71 57 86 61 16 3 28 12 28 20 0 8 12 26 26 39 24
22 24 25 8 25 -10 0 -37 -14 -58 -30z"/>
<path d="M5900 5340 c0 -15 7 -20 26 -20 22 0 103 -51 112 -71 1 -3 25 -30 52
-59 26 -30 46 -58 43 -63 -7 -11 26 -97 37 -97 23 0 42 16 55 46 8 19 20 34
28 34 7 0 24 11 37 25 13 14 28 25 34 25 6 0 16 10 21 22 6 13 21 28 34 34 38
19 91 74 91 95 0 33 -26 21 -88 -39 -32 -31 -71 -63 -85 -69 -15 -7 -27 -17
-27 -23 0 -5 -7 -10 -15 -10 -9 0 -18 -7 -21 -15 -8 -19 -30 -19 -41 -1 -4 7
-23 21 -40 30 -18 9 -33 21 -33 26 0 22 -74 89 -120 109 -27 12 -52 26 -55 31
-12 19 -45 11 -45 -10z"/>
<path d="M6603 5353 c-18 -7 -16 -33 1 -33 8 0 34 -22 58 -50 23 -27 48 -50
54 -50 6 0 22 12 36 28 15 15 38 38 52 51 14 12 23 27 20 32 -7 12 -38 11 -51
-2 -6 -6 -27 -14 -47 -19 -31 -7 -41 -4 -72 21 -20 16 -37 29 -38 28 0 0 -7
-3 -13 -6z"/>
<path d="M7019 5339 c31 -25 134 -25 129 0 -3 13 -18 16 -78 17 -75 2 -75 2
-51 -17z"/>
<path d="M7295 5350 c-11 -5 -37 -9 -57 -9 -44 -1 -51 -22 -13 -39 20 -9 33
-7 70 9 25 11 45 26 45 34 0 17 -15 18 -45 5z"/>
<path d="M1830 5331 c0 -5 13 -22 29 -37 16 -16 43 -59 60 -96 17 -38 36 -68
44 -68 20 0 60 47 52 60 -4 7 -1 10 8 8 9 -2 28 11 44 27 15 17 40 39 56 48
27 18 36 50 16 62 -6 4 -17 -2 -25 -14 -8 -12 -21 -21 -28 -21 -7 0 -22 -13
-34 -30 -14 -19 -32 -30 -47 -30 -13 0 -27 -4 -30 -10 -10 -16 -25 -12 -25 7
0 16 -49 67 -89 91 -25 14 -31 15 -31 3z"/>
<path d="M3770 5332 c0 -4 16 -16 35 -26 19 -11 35 -27 35 -36 0 -10 7 -23 15
-30 13 -10 15 -9 15 12 0 16 -13 34 -42 56 -42 32 -58 39 -58 24z"/>
<path d="M4766 5331 c-5 -8 15 -39 54 -83 33 -37 40 -48 40 -61 0 -8 9 -26 20
-40 14 -18 20 -40 20 -75 0 -28 5 -54 10 -57 6 -4 25 10 43 31 17 20 48 51 66
68 19 17 49 45 66 61 18 17 49 45 70 63 23 20 35 38 31 47 -9 25 -25 17 -76
-35 -27 -27 -53 -50 -58 -50 -5 0 -19 -11 -31 -24 -18 -19 -33 -24 -62 -23
-25 1 -39 6 -39 14 0 24 -123 173 -142 173 -4 0 -9 -4 -12 -9z"/>
<path d="M5216 5324 c-18 -17 -20 -30 -7 -38 12 -8 63 33 56 45 -9 14 -32 11
-49 -7z"/>
<path d="M7386 5332 c-2 -4 13 -17 35 -29 43 -24 50 -18 19 15 -21 22 -45 29
-54 14z"/>
<path d="M3180 5307 c0 -16 75 -88 84 -80 12 12 6 28 -25 61 -31 33 -59 42
-59 19z"/>
<path d="M3557 5289 c-43 -35 -48 -59 -13 -59 17 0 31 10 43 30 9 17 24 30 31
30 12 0 12 3 2 15 -17 20 -20 20 -63 -16z"/>
<path d="M4547 5282 c-52 -54 -24 -71 42 -24 48 32 52 52 13 52 -18 0 -38 -10
-55 -28z"/>
<path d="M5795 5242 c-16 -9 -37 -26 -47 -38 -9 -11 -56 -44 -103 -74 -48 -29
-99 -64 -113 -77 -53 -50 -98 -51 -108 -4 -3 14 -12 38 -19 52 -8 14 -11 35
-8 47 3 12 1 22 -5 22 -5 0 -13 11 -16 25 -4 16 -20 32 -42 43 l-36 17 -26
-33 c-15 -18 -30 -32 -34 -32 -5 0 -17 -9 -29 -19 -55 -50 -77 -69 -119 -96
-24 -17 -52 -37 -60 -46 -9 -8 -27 -23 -39 -31 -15 -11 -21 -23 -18 -32 8 -20
34 -20 53 -1 29 28 77 19 115 -22 l34 -38 -1 -388 c0 -213 2 -390 6 -392 3 -2
12 0 20 5 13 8 15 63 18 337 1 180 -1 357 -4 391 -5 57 -10 68 -45 103 -45 45
-49 67 -14 97 14 12 25 28 25 36 0 8 11 17 25 20 14 4 25 11 25 16 0 18 54 39
73 29 10 -6 26 -8 36 -4 12 3 19 1 18 -7 -2 -58 5 -82 33 -108 24 -22 30 -37
30 -68 0 -22 -6 -45 -14 -52 -12 -9 -15 -44 -14 -178 1 -156 7 -202 27 -202
14 0 19 99 11 220 -8 131 0 176 33 186 12 3 33 16 47 28 62 53 93 68 152 74
l60 5 -5 44 c-5 48 10 66 38 43 10 -9 15 -9 15 -1 0 21 40 51 68 51 33 0 94
-21 115 -39 20 -16 57 -92 57 -116 0 -10 11 -30 25 -45 27 -28 25 -65 -4 -75
-9 -3 -42 -30 -73 -60 -33 -32 -65 -55 -78 -55 -19 0 -21 5 -19 47 4 66 -15
66 -46 0 -13 -30 -31 -57 -40 -61 -8 -3 -15 -11 -15 -19 0 -15 -91 -107 -107
-107 -6 0 -13 -11 -15 -24 -4 -19 0 -26 16 -30 21 -6 27 -1 84 74 26 34 49 39
59 13 15 -39 95 -103 129 -103 16 0 17 10 4 44 -7 20 -17 25 -52 28 -38 3 -43
6 -44 28 0 14 -3 31 -8 38 -9 15 1 32 20 32 8 0 14 -4 14 -10 0 -18 44 -10 71
13 14 12 59 49 99 81 l72 59 -4 66 c-4 56 -10 72 -32 94 -14 14 -26 36 -26 49
-1 25 -95 108 -122 108 -8 0 -23 9 -33 20 -22 24 -50 25 -90 2z"/>
<path d="M1720 5220 c-18 -16 -36 -30 -39 -30 -3 0 -24 -17 -45 -38 -22 -20
-47 -41 -57 -47 -45 -27 -149 -119 -149 -131 0 -23 27 -27 52 -10 26 18 69 21
85 5 7 -7 12 2 16 31 3 27 13 47 27 57 14 10 19 21 14 35 -5 17 -3 19 15 13
16 -5 27 1 46 23 29 34 84 50 100 29 6 -8 20 -17 32 -21 19 -6 20 -10 10 -36
-10 -27 -9 -33 17 -58 l28 -27 -5 74 c-4 72 -5 74 -51 117 -25 24 -50 44 -54
44 -5 0 -24 -13 -42 -30z"/>
<path d="M2175 5209 c-22 -22 -65 -57 -94 -77 -30 -20 -75 -56 -99 -79 -27
-27 -53 -43 -68 -43 -20 0 -24 -5 -24 -30 0 -16 -4 -30 -9 -30 -15 0 -22 -32
-10 -47 10 -12 17 -9 40 17 15 16 32 30 36 30 5 0 24 16 43 35 18 19 57 45 87
59 29 14 53 30 53 36 0 6 14 25 31 43 17 17 36 39 43 48 6 9 31 19 56 23 37 5
52 2 80 -16 19 -12 48 -23 65 -24 17 -1 34 -10 40 -20 18 -33 77 -83 110 -94
27 -9 34 -17 38 -47 4 -19 14 -44 23 -54 9 -10 17 -31 18 -47 1 -16 6 -35 12
-43 6 -8 12 -61 14 -119 2 -58 3 -123 4 -144 1 -22 7 -41 13 -43 10 -4 12 14
11 69 -1 40 3 82 9 93 17 31 -8 226 -32 255 -7 8 -14 20 -16 26 -7 20 -131
154 -143 154 -7 0 -27 13 -46 30 -19 16 -40 29 -46 30 -6 0 -17 7 -24 15 -8 9
-29 15 -56 15 -23 0 -46 5 -49 10 -3 6 -21 10 -39 10 -24 0 -41 -10 -71 -41z"/>
<path d="M3684 5225 c-14 -14 -28 -25 -32 -25 -4 0 -30 -22 -59 -48 -67 -62
-109 -95 -160 -132 -39 -28 -56 -62 -35 -73 4 -2 31 1 61 7 53 11 54 12 68 59
7 26 19 47 25 47 6 0 26 18 45 40 22 25 43 40 58 40 16 0 25 7 29 25 6 23 9
24 28 14 12 -6 27 -16 32 -21 6 -5 20 -15 31 -22 19 -14 20 -27 21 -327 1
-226 4 -314 12 -317 9 -3 12 24 13 90 1 51 3 156 6 233 3 77 5 154 6 170 1 75
-16 175 -34 191 -11 10 -19 22 -19 29 0 6 -16 19 -35 28 -35 17 -36 17 -61 -8z"/>
<path d="M6537 5238 c-10 -5 -39 -29 -65 -54 -26 -24 -52 -44 -58 -44 -7 0
-19 -11 -27 -24 -9 -13 -47 -45 -85 -70 -77 -51 -97 -70 -87 -86 9 -15 51 -12
65 5 14 17 66 20 75 5 12 -20 23 -9 29 28 7 46 65 118 124 155 55 34 82 35 82
3 0 -19 8 -27 36 -36 45 -15 63 -1 34 25 -11 10 -20 23 -20 30 0 13 -36 48
-65 63 -14 7 -26 7 -38 0z"/>
<path d="M6843 5220 c-15 -16 -33 -30 -40 -30 -7 0 -19 -13 -28 -30 -9 -18
-23 -30 -36 -30 -11 0 -23 -10 -29 -24 -5 -13 -14 -27 -19 -31 -6 -3 -11 -14
-11 -25 0 -15 6 -17 39 -13 23 3 41 1 45 -6 4 -6 23 -11 43 -11 20 0 55 -10
79 -22 37 -18 49 -20 78 -11 21 7 39 7 50 1 10 -6 28 -7 41 -4 25 6 85 61 85
77 0 11 -57 12 -62 2 -7 -18 -78 -45 -95 -38 -16 7 -41 11 -108 16 -11 0 -29
-2 -41 -6 -17 -5 -25 1 -43 31 -27 45 -23 56 22 78 20 9 37 21 39 27 5 14 78
28 154 29 80 0 126 -28 135 -83 3 -20 8 -40 11 -43 4 -3 33 15 66 40 33 25 64
46 69 46 5 0 21 15 37 33 25 28 26 32 11 35 -28 6 -104 -8 -111 -20 -4 -6 -7
-20 -8 -31 -2 -34 -26 -33 -26 2 0 38 -7 42 -78 45 -31 1 -67 7 -79 14 -12 7
-53 12 -91 12 -65 0 -72 -2 -99 -30z"/>
<path d="M3045 5198 c-27 -22 -70 -59 -95 -82 -25 -22 -72 -59 -105 -81 -59
-39 -77 -67 -57 -87 7 -7 21 -5 43 6 18 9 51 16 74 16 50 0 58 6 44 32 -8 15
-6 28 5 53 9 18 16 38 16 43 0 6 14 14 32 17 18 4 40 18 51 31 20 26 40 30 60
14 7 -6 22 -18 35 -28 26 -19 35 -48 37 -112 3 -111 23 -179 47 -164 12 8 10
183 -3 223 -13 41 -14 43 -53 102 -48 73 -60 75 -131 17z"/>
<path d="M4652 5201 c-15 -21 -40 -44 -56 -51 -16 -7 -38 -22 -50 -32 -12 -10
-32 -29 -46 -42 -14 -12 -44 -34 -67 -49 -79 -50 -76 -96 5 -64 36 15 41 14
78 -7 21 -12 44 -31 50 -43 8 -17 13 -20 22 -11 17 17 15 26 -8 33 -11 3 -20
12 -20 20 0 7 -8 15 -19 18 -14 3 -17 11 -14 32 3 14 11 29 18 32 7 2 19 17
25 33 18 43 92 84 136 75 19 -3 38 -13 41 -21 3 -7 11 -14 19 -14 24 0 16 58
-12 96 -36 47 -66 45 -102 -5z"/>
<path d="M7472 5228 c6 -18 28 -21 28 -4 0 9 -7 16 -16 16 -9 0 -14 -5 -12
-12z"/>
<path d="M3463 5205 c-13 -12 -23 -27 -23 -32 0 -6 -18 -15 -39 -21 -37 -9
-41 -8 -72 24 -51 53 -83 38 -40 -18 11 -13 19 -31 19 -39 -4 -58 3 -109 15
-108 6 0 26 18 44 40 17 21 51 55 75 74 24 19 49 40 56 45 6 6 12 22 12 35 0
30 -17 30 -47 0z"/>
<path d="M3883 5198 c3 -13 11 -44 17 -70 9 -37 16 -48 31 -48 20 0 27 34 9
45 -5 3 -10 16 -10 28 0 26 -26 67 -42 67 -6 0 -8 -10 -5 -22z"/>
<path d="M4495 5210 c-3 -5 -14 -10 -24 -10 -10 0 -29 -10 -43 -22 -14 -13
-48 -42 -76 -65 -63 -53 -96 -118 -87 -170 6 -39 45 -93 65 -93 14 0 3 38 -17
61 -22 26 -14 111 12 124 11 6 36 26 56 45 19 19 61 54 92 77 31 24 57 47 57
53 0 13 -27 13 -35 0z"/>
<path d="M7407 5170 c-19 -16 -40 -30 -46 -30 -6 0 -11 -6 -11 -12 0 -7 -13
-22 -29 -32 -29 -20 -61 -64 -61 -85 0 -28 39 -4 116 73 75 75 102 116 74 116
-5 0 -25 -13 -43 -30z"/>
<path d="M4789 5096 c-2 -2 -4 -206 -4 -453 0 -409 2 -451 18 -480 10 -18 19
-33 21 -33 5 0 11 732 8 865 -2 57 -7 92 -15 97 -14 9 -22 10 -28 4z"/>
<path d="M5753 5064 c-3 -8 2 -23 11 -32 15 -15 16 -14 16 16 0 33 -16 43 -27
16z"/>
<path d="M2147 5034 c-11 -11 3 -24 24 -24 11 0 47 -28 83 -66 36 -38 69 -63
75 -60 18 12 12 44 -9 51 -11 3 -29 20 -41 37 -12 16 -42 38 -66 49 -49 21
-56 22 -66 13z"/>
<path d="M7203 4998 c-6 -7 -13 -22 -15 -33 -2 -11 -10 -19 -17 -17 -14 3 -51
-25 -51 -40 0 -15 30 -8 71 17 47 30 58 51 37 71 -12 12 -17 13 -25 2z"/>
<path d="M5610 4963 c-8 -3 -22 -13 -31 -22 -9 -9 -28 -26 -43 -38 -17 -15
-26 -33 -26 -53 0 -25 4 -30 25 -30 14 0 26 5 26 10 1 6 2 14 3 19 0 5 12 19
25 30 32 27 68 27 76 0 8 -25 -40 -75 -83 -85 -40 -10 -72 -43 -72 -76 0 -15
-5 -37 -12 -48 -20 -31 -1 -35 47 -8 28 15 52 38 63 59 9 19 29 40 44 47 46
22 89 86 91 136 1 24 0 47 -3 49 -8 8 -114 17 -130 10z"/>
<path d="M6645 4959 c-10 -15 4 -61 15 -54 13 8 13 65 1 65 -6 0 -13 -5 -16
-11z"/>
<path d="M2050 4939 c-14 -12 -40 -34 -58 -49 l-34 -29 4 -178 c2 -98 1 -248
-1 -333 l-5 -155 43 -3 c59 -4 74 12 38 41 l-27 22 -2 283 -2 283 38 35 c20
19 43 34 51 34 33 0 97 -56 121 -106 13 -28 24 -55 24 -60 0 -5 14 -36 30 -69
17 -33 30 -66 30 -73 0 -7 8 -12 18 -10 24 5 29 64 6 89 -10 11 -24 17 -31 15
-7 -3 -13 1 -13 8 0 8 5 16 11 18 7 2 1 25 -14 60 -27 60 -39 78 -71 106 -11
9 -37 34 -57 55 -42 42 -63 45 -99 16z"/>
<path d="M3540 4944 c0 -8 11 -30 24 -47 l24 -32 -4 -356 c-3 -342 -3 -357 16
-374 19 -17 19 -14 20 253 0 171 -4 273 -10 277 -13 8 -13 62 0 70 17 10 12
121 -7 162 -25 54 -63 82 -63 47z"/>
<path d="M1600 4931 c0 -6 4 -11 9 -11 5 0 11 -12 13 -27 2 -20 9 -29 26 -31
26 -4 28 6 4 33 -26 32 -52 49 -52 36z"/>
<path d="M6754 4926 c-4 -9 -3 -36 0 -59 9 -55 9 -57 1 -92 -13 -59 -1 -62
203 -57 l182 4 0 25 c0 24 -2 25 -47 21 -27 -3 -95 -1 -153 4 -111 9 -145 23
-121 51 6 8 9 22 5 30 -5 13 3 16 48 16 29 0 74 -5 99 -11 38 -9 52 -8 87 7
23 11 42 21 42 24 0 3 -46 5 -101 5 -82 -2 -108 2 -133 16 -48 28 -104 36
-112 16z"/>
<path d="M3943 4850 c0 -47 2 -66 4 -42 2 23 2 61 0 85 -2 23 -4 4 -4 -43z"/>
<path d="M3315 4901 c-3 -10 -1 -50 5 -87 7 -41 10 -185 9 -354 -2 -281 1
-311 30 -276 17 21 39 10 89 -41 49 -52 52 -75 15 -106 -15 -12 -44 -39 -63
-59 -19 -21 -41 -38 -47 -38 -7 0 -17 -9 -23 -20 -6 -11 -29 -32 -51 -46 -26
-16 -39 -31 -37 -42 5 -28 33 -24 66 9 28 29 34 31 64 23 20 -6 34 -17 36 -29
5 -25 51 -75 69 -75 23 0 14 25 -17 42 -41 23 -42 72 -2 114 38 38 53 129 40
229 -6 39 -13 103 -16 144 -4 46 -12 76 -19 79 -8 2 -13 -6 -13 -22 0 -13 -4
-28 -10 -31 -5 -3 -10 -15 -10 -26 0 -14 -7 -19 -25 -19 -13 0 -28 -8 -34 -17
-7 -14 -11 -7 -16 31 -9 56 -1 127 17 156 10 16 10 24 0 40 -14 23 -16 66 -3
74 13 8 13 137 0 153 -7 8 -11 35 -10 61 2 50 -16 139 -29 147 -5 3 -11 -3
-15 -14z"/>
<path d="M4905 4910 c-3 -5 -3 -16 2 -22 4 -7 8 -168 10 -358 l2 -345 23 1
c13 1 31 4 40 8 17 8 21 5 78 -66 27 -32 29 -39 19 -62 -7 -14 -19 -28 -28
-31 -9 -3 -27 -21 -40 -40 -13 -19 -27 -35 -31 -35 -4 0 -27 -18 -51 -40 -24
-22 -47 -40 -51 -40 -4 0 -24 -17 -45 -38 -21 -20 -49 -45 -63 -54 -20 -12
-22 -19 -13 -28 9 -10 19 -9 48 4 20 10 38 23 41 31 3 7 23 27 45 44 45 36 74
35 89 -5 5 -13 17 -24 26 -24 13 0 15 7 10 35 -6 31 -3 39 27 68 47 44 52 79
50 312 -1 110 -2 255 -2 323 -1 99 -4 122 -15 122 -8 0 -17 -4 -20 -8 -3 -5
-7 -92 -10 -193 -3 -102 -8 -192 -11 -202 -8 -19 -43 -33 -56 -20 -19 19 -31
173 -26 340 5 192 10 207 67 209 35 1 35 1 31 -39 -2 -31 1 -44 15 -54 10 -7
21 -13 26 -13 15 0 8 78 -7 94 -13 12 -14 20 -5 36 33 62 -19 106 -63 54 -23
-26 -24 -26 -50 -10 -14 10 -29 26 -32 37 -7 21 -20 25 -30 9z"/>
<path d="M2980 4863 l0 -47 20 22 c19 21 20 23 4 47 -9 14 -18 25 -20 25 -2 0
-4 -21 -4 -47z"/>
<path d="M1468 4877 c-24 -22 -25 -27 -13 -48 7 -13 25 -48 39 -78 35 -73 48
-58 44 55 -3 81 -5 89 -24 92 -11 2 -32 -8 -46 -21z"/>
<path d="M2812 4877 c-31 -21 -32 -24 -26 -67 4 -25 7 -91 8 -147 1 -67 5
-106 14 -114 19 -20 15 -35 -13 -47 -21 -10 -25 -19 -25 -52 0 -30 -9 -55 -35
-93 -19 -28 -35 -56 -35 -60 0 -5 -12 -28 -27 -51 -16 -22 -35 -54 -43 -70 -8
-16 -33 -50 -56 -75 -52 -59 -69 -90 -56 -103 13 -13 110 86 119 120 3 12 14
27 24 32 17 10 27 25 66 100 10 19 21 37 26 38 4 2 7 14 7 27 0 12 7 25 15 29
8 3 15 14 15 25 0 11 16 36 35 57 35 37 39 36 47 -11 2 -11 8 32 12 95 4 67 3
126 -2 140 -5 14 -6 61 -3 105 8 92 2 139 -19 142 -8 1 -30 -8 -48 -20z"/>
<path d="M4410 4860 l-21 -41 31 -25 c24 -21 30 -34 30 -65 0 -21 4 -39 8 -39
31 0 44 77 17 100 -12 10 -12 15 1 35 21 33 9 75 -22 75 -18 0 -29 -10 -44
-40z"/>
<path d="M6160 4874 c0 -32 -40 -71 -132 -130 -38 -24 -68 -48 -68 -54 0 -5
13 -10 29 -10 48 0 72 -14 146 -88 77 -76 95 -108 121 -226 16 -75 16 -82 1
-109 -10 -16 -17 -35 -17 -42 0 -8 -10 -20 -22 -26 -13 -7 -60 -49 -104 -93
-95 -94 -227 -214 -259 -236 -13 -8 -31 -24 -41 -36 -11 -12 -39 -27 -64 -35
-25 -7 -49 -19 -53 -26 -4 -7 -19 -13 -32 -13 -23 0 -42 -16 -32 -26 9 -9 162
38 195 59 18 12 35 32 38 44 4 14 17 24 35 28 30 7 81 50 251 218 55 53 103
97 108 97 5 0 11 -8 14 -17 10 -33 14 -155 5 -185 -18 -63 16 -79 43 -20 14
28 16 49 10 86 -4 28 -4 94 0 148 3 53 3 191 0 305 -4 115 -4 246 0 292 5 51
3 91 -3 102 -13 25 -46 24 -61 -1 -7 -11 -21 -20 -30 -20 -10 0 -27 9 -38 20
-27 27 -40 25 -40 -6z m116 -85 c12 -20 7 -194 -7 -232 -13 -38 -29 -49 -29
-21 0 9 -32 47 -70 84 -76 74 -76 73 -33 143 22 35 26 37 78 37 29 0 57 -5 61
-11z"/>
<path d="M3428 4874 c-30 -16 -48 -43 -48 -71 0 -17 99 -101 101 -85 5 61 7
141 3 155 -6 21 -20 21 -56 1z"/>
<path d="M4592 4855 c12 -27 28 -24 28 6 0 12 -7 19 -20 19 -17 0 -18 -3 -8
-25z"/>
<path d="M2350 4825 c0 -17 7 -41 16 -54 9 -13 22 -40 28 -61 24 -81 40 -20
19 75 -6 28 -14 40 -26 40 -10 0 -22 7 -27 15 -7 11 -10 8 -10 -15z"/>
<path d="M3198 4646 c-6 -348 -4 -385 19 -362 4 3 8 125 10 270 2 226 1 263
-12 263 -13 0 -15 -28 -17 -171z"/>
<path d="M6430 4738 c1 -595 -2 -755 -15 -783 -7 -16 -16 -40 -20 -52 -3 -13
-11 -23 -16 -23 -5 0 -9 -9 -9 -20 0 -25 36 -27 63 -3 13 13 41 19 93 21 41 3
74 8 74 12 0 15 -25 27 -68 34 -24 3 -55 14 -69 23 -27 18 -28 42 -4 128 17
60 12 670 -5 713 -7 17 -16 32 -19 32 -3 0 -5 -37 -5 -82z"/>
<path d="M6642 4800 c-16 -26 -15 -40 3 -40 10 0 15 10 15 30 0 35 -1 36 -18
10z"/>
<path d="M1637 4753 c-4 -3 -7 -16 -7 -29 0 -17 4 -21 20 -17 13 3 20 14 20
29 0 23 -19 32 -33 17z"/>
<path d="M4597 4753 c-12 -11 -8 -23 8 -23 8 0 15 7 15 15 0 16 -12 20 -23 8z"/>
<path d="M7160 4730 c-11 -7 0 -10 37 -10 28 0 55 5 58 10 8 13 -75 13 -95 0z"/>
<path d="M3940 4689 c0 -11 5 -17 10 -14 6 3 10 13 10 21 0 8 -4 14 -10 14 -5
0 -10 -9 -10 -21z"/>
<path d="M1513 4662 c-18 -11 -23 -546 -6 -563 7 -7 16 -10 20 -6 6 7 8 565 1
572 -2 2 -9 1 -15 -3z"/>
<path d="M4446 4508 c-3 -90 -6 -175 -7 -189 -2 -21 -11 -31 -42 -44 -38 -17
-39 -19 -19 -26 12 -5 25 -17 29 -26 3 -10 15 -29 25 -42 27 -36 23 -75 -12
-104 -16 -14 -30 -32 -30 -40 0 -8 -15 -22 -33 -30 -18 -9 -39 -28 -47 -42 -7
-14 -18 -25 -25 -25 -13 0 -85 -74 -85 -87 0 -5 -10 -15 -21 -23 -29 -20 -59
-52 -59 -63 0 -4 12 -7 27 -5 19 2 32 13 43 33 8 17 20 33 25 37 22 15 63 49
88 72 14 13 35 27 46 31 11 3 23 15 26 26 4 13 15 19 33 19 34 0 92 51 93 82
4 70 -5 147 -21 177 -15 30 -16 39 -5 65 18 43 8 366 -11 366 -10 0 -14 -39
-18 -162z"/>
<path d="M4577 4663 c-9 -8 -9 -246 -1 -267 3 -9 12 -16 19 -16 21 0 25 25 25
161 0 118 -2 129 -18 129 -10 0 -22 -3 -25 -7z"/>
<path d="M1630 4404 c0 -238 1 -255 18 -252 16 3 17 24 20 256 2 247 2 252
-18 252 -20 0 -20 -6 -20 -256z"/>
<path d="M3440 4531 c0 -107 3 -130 15 -135 21 -8 24 6 21 89 -1 39 -3 94 -4
123 -2 39 -6 52 -17 52 -13 0 -15 -21 -15 -129z"/>
<path d="M2452 4638 c-15 -15 -16 -72 -1 -118 5 -19 12 -89 13 -155 2 -99 0
-127 -16 -162 -10 -23 -18 -46 -18 -50 0 -19 -83 -91 -135 -118 -37 -19 -57
-35 -61 -51 -7 -29 -48 -59 -89 -67 -16 -2 -43 -9 -60 -15 -94 -33 -114 -36
-135 -17 -23 20 -53 13 -48 -12 2 -13 18 -20 58 -26 64 -10 108 -4 152 17 17
9 39 16 49 16 41 0 201 110 289 199 56 56 130 167 130 193 0 8 9 23 19 32 11
10 31 43 46 74 29 62 27 102 -5 102 -16 0 -20 -7 -20 -34 0 -18 -7 -39 -15
-46 -8 -7 -15 -18 -15 -24 0 -10 -56 -66 -66 -66 -11 0 -25 59 -30 128 -16
212 -18 224 -42 200z"/>
<path d="M6686 4636 c7 -19 66 -49 89 -45 33 7 28 28 -9 35 -20 3 -39 10 -42
15 -9 15 -44 11 -38 -5z"/>
<path d="M7033 4633 c-36 -5 -41 -14 -18 -33 12 -10 21 -10 41 -1 33 15 64 14
64 -1 0 -7 -18 -32 -40 -56 -35 -38 -45 -43 -69 -37 -34 7 -42 -1 -30 -32 14
-38 53 -29 135 33 72 54 93 86 80 119 -5 15 -78 18 -163 8z"/>
<path d="M6845 4612 c-3 -3 -5 -9 -5 -14 0 -11 47 -10 54 1 6 9 -40 22 -49 13z"/>
<path d="M5552 4572 c-18 -16 -50 -37 -72 -48 -34 -16 -40 -24 -40 -51 0 -28
4 -33 23 -33 12 0 36 9 52 20 17 11 38 20 48 20 11 0 17 8 17 21 0 13 8 23 21
26 12 4 18 11 15 20 -3 8 -6 23 -6 34 0 27 -21 24 -58 -9z"/>
<path d="M5964 4585 c-8 -19 13 -45 36 -45 9 0 22 -11 28 -24 6 -13 23 -30 39
-38 17 -8 31 -25 36 -45 15 -50 57 -56 57 -9 0 14 -10 30 -25 40 -14 9 -27 27
-31 41 -3 14 -21 34 -39 45 -18 11 -36 27 -39 35 -7 20 -55 19 -62 0z"/>
<path d="M2997 4544 c-11 -11 -8 -72 3 -79 10 -6 11 -5 15 35 3 28 -8 54 -18
44z"/>
<path d="M2350 4443 c2 -96 -11 -220 -24 -241 -4 -8 -17 -12 -27 -9 -10 3 -22
1 -25 -4 -3 -5 -16 -9 -30 -9 -13 0 -24 -4 -24 -10 0 -5 7 -10 15 -10 20 0 19
-17 -2 -29 -14 -8 -8 -10 28 -11 45 0 79 20 79 48 0 6 9 16 20 22 19 10 20 21
20 160 0 149 -4 180 -22 180 -6 0 -9 -36 -8 -87z"/>
<path d="M5626 4491 c-16 -17 -16 -19 1 -26 10 -4 36 -9 58 -12 22 -2 45 -9
50 -16 6 -7 28 -21 50 -32 37 -19 51 -30 118 -92 15 -14 30 -23 33 -20 11 11
-9 51 -41 81 -69 64 -107 86 -165 93 -27 3 -47 9 -44 14 2 4 -4 13 -15 18 -25
14 -25 14 -45 -8z"/>
<path d="M7207 4477 c-34 -36 -108 -91 -150 -112 l-38 -20 32 -3 c50 -5 129
41 139 81 4 14 14 22 27 22 12 0 25 3 29 8 4 4 2 7 -4 7 -16 0 -15 27 1 33 9
4 9 6 -1 6 -7 1 -23 -9 -35 -22z"/>
<path d="M6706 4475 c-10 -7 -16 -19 -14 -26 2 -7 15 -2 33 14 32 28 16 38
-19 12z"/>
<path d="M6765 4480 c3 -5 17 -10 30 -10 13 0 36 -5 50 -12 19 -8 31 -8 50 0
46 21 27 32 -56 32 -51 0 -78 -4 -74 -10z"/>
<path d="M3800 4424 c0 -21 4 -33 10 -29 6 3 10 19 10 36 0 16 -4 29 -10 29
-5 0 -10 -16 -10 -36z"/>
<path d="M3940 4387 c0 -35 4 -47 13 -45 18 7 20 50 3 73 -14 19 -15 17 -16
-28z"/>
<path d="M5415 4400 c4 -13 1 -22 -9 -26 -23 -9 -23 -170 0 -202 23 -33 30
-20 28 50 -2 35 -3 93 -3 131 -1 40 -5 67 -12 67 -6 0 -8 -9 -4 -20z"/>
<path d="M5553 4383 c-31 -6 -60 -98 -39 -122 8 -9 16 -25 18 -36 2 -14 15
-21 48 -27 25 -4 58 -17 73 -29 22 -16 37 -19 63 -14 30 5 35 3 44 -20 8 -21
16 -25 53 -25 37 0 46 4 55 25 7 14 12 34 11 43 -1 33 -44 97 -74 111 -17 7
-42 25 -58 39 -19 18 -39 26 -66 27 -21 0 -45 6 -52 12 -19 14 -49 21 -76 16z
m82 -74 c4 -6 13 -8 21 -5 7 3 20 -2 28 -10 10 -9 24 -12 40 -8 19 4 26 1 31
-18 4 -12 14 -31 23 -40 12 -14 12 -20 2 -33 -12 -14 -15 -14 -37 1 -15 9 -35
13 -48 10 -14 -4 -27 0 -35 9 -7 8 -18 15 -25 15 -7 0 -23 9 -36 19 -22 17
-22 21 -10 45 15 27 35 34 46 15z"/>
<path d="M6759 4360 c-1 -11 -2 -53 -2 -92 l-1 -73 211 -1 c116 -1 216 2 223
6 18 11 -10 52 -30 44 -34 -13 -147 -24 -180 -18 -19 4 -52 6 -73 5 -68 -5
-130 37 -78 54 25 8 34 55 14 78 -9 10 -30 17 -50 17 -26 0 -33 -4 -34 -20z"/>
<path d="M6893 4373 c-15 -5 -17 -39 -4 -48 5 -3 21 0 35 6 20 10 30 9 51 -5
34 -22 32 -1 -2 29 -27 23 -53 29 -80 18z"/>
<path d="M1842 4350 c-14 -23 -17 -69 -3 -54 9 9 26 74 19 74 -2 0 -9 -9 -16
-20z"/>
<path d="M6148 4363 c-10 -2 -21 -17 -25 -31 -8 -37 -61 -112 -78 -112 -7 0
-20 -3 -29 -6 -10 -4 -16 -1 -16 8 0 27 -25 68 -40 65 -19 -4 -15 -45 7 -69
15 -17 15 -20 1 -31 -9 -6 -19 -28 -22 -48 -8 -44 -67 -103 -117 -117 -37 -10
-89 -51 -89 -71 0 -6 -4 -11 -10 -11 -5 0 -19 -10 -30 -22 -17 -19 -35 -23
-107 -28 -56 -3 -88 -9 -91 -17 -10 -31 114 -44 171 -19 95 41 138 66 204 121
71 59 183 176 183 190 0 7 16 20 36 30 24 11 34 21 30 32 -4 10 -2 13 8 10 22
-9 46 37 46 88 0 25 -3 44 -7 44 -5 -1 -16 -3 -25 -6z"/>
<path d="M3800 4331 c0 -12 5 -21 10 -21 6 0 10 6 10 14 0 8 -4 18 -10 21 -5
3 -10 -3 -10 -14z"/>
<path d="M2847 4333 c-13 -12 -7 -41 13 -64 l19 -24 1 48 c0 44 -13 61 -33 40z"/>
<path d="M4590 4325 c0 -8 5 -15 10 -15 6 0 10 7 10 15 0 8 -4 15 -10 15 -5 0
-10 -7 -10 -15z"/>
<path d="M6636 4331 c-4 -6 -1 -21 6 -33 l13 -23 3 24 c4 26 -12 49 -22 32z"/>
<path d="M3937 4277 c-3 -18 -8 -42 -12 -54 -7 -22 -5 -23 56 -23 35 -1 82 -7
104 -15 52 -19 110 -19 168 1 52 18 60 25 51 49 -8 20 -56 12 -98 -18 -23 -16
-32 -18 -48 -8 -10 6 -40 14 -66 18 -32 4 -63 18 -98 44 l-52 38 -5 -32z"/>
<path d="M2996 4281 c-10 -16 -18 -211 -9 -211 27 1 32 19 29 113 -2 94 -7
119 -20 98z"/>
<path d="M3800 4265 c0 -8 5 -15 10 -15 6 0 10 -16 10 -35 0 -19 4 -35 9 -35
17 0 18 26 2 63 -16 38 -31 49 -31 22z"/>
<path d="M7246 4265 c-9 -9 -16 -22 -16 -30 0 -7 -6 -16 -12 -18 -8 -3 -6 -6
5 -6 9 -1 17 3 17 9 0 5 11 12 26 16 15 4 24 12 22 22 -4 22 -23 25 -42 7z"/>
<path d="M7373 4233 c-7 -3 -13 -11 -13 -18 0 -15 41 -28 53 -16 10 10 -25 40
-40 34z"/>
<path d="M1852 4223 c-32 -6 -22 -28 14 -28 18 0 29 5 29 14 0 17 -11 20 -43
14z"/>
<path d="M2110 4180 c-20 -12 -4 -28 34 -32 32 -3 47 16 19 26 -10 3 -22 8
-28 11 -5 3 -17 0 -25 -5z"/>
<path d="M4594 4147 c-11 -30 5 -171 22 -180 8 -4 14 -19 14 -32 0 -20 59 -95
75 -95 6 0 25 16 85 71 25 23 70 57 100 77 76 49 100 73 100 102 0 19 -3 21
-12 12 -7 -7 -31 -12 -55 -12 -40 0 -44 -3 -63 -39 -11 -22 -29 -42 -40 -46
-11 -3 -20 -10 -20 -14 0 -11 -72 -91 -82 -91 -5 0 -16 15 -24 33 -8 17 -18
39 -24 47 -23 39 -40 86 -40 115 0 17 -6 40 -14 51 -14 18 -15 18 -22 1z"/>
<path d="M7220 4131 c-47 -25 -63 -28 -104 -24 -39 5 -47 4 -41 -7 5 -7 9 -27
9 -44 1 -25 -10 -42 -61 -91 -49 -48 -74 -64 -122 -78 -33 -11 -65 -16 -71
-12 -6 4 -18 1 -26 -6 -24 -20 2 -29 84 -29 l73 0 99 88 c54 48 116 101 137
117 127 101 140 148 23 86z"/>
<path d="M7410 4146 c0 -13 -49 -60 -161 -156 -29 -25 -76 -67 -103 -95 -28
-27 -68 -62 -88 -77 -34 -26 -56 -63 -45 -74 7 -7 61 19 71 35 20 32 79 91 92
91 7 0 47 33 89 73 41 39 89 83 106 96 30 23 42 45 55 96 4 15 2 25 -5 25 -6
0 -11 -6 -11 -14z"/>
<path d="M4310 4135 c-7 -8 -17 -15 -22 -15 -6 0 -39 -14 -74 -31 -44 -22 -68
-29 -76 -22 -22 17 -116 43 -150 42 -18 -1 -54 2 -80 6 -33 5 -48 4 -48 -3 0
-16 54 -42 88 -42 16 0 46 -7 65 -15 20 -8 52 -15 70 -15 41 0 62 -21 54 -52
-8 -31 -105 -103 -140 -104 -15 0 -30 -4 -34 -7 -3 -4 -17 -7 -29 -7 -28 0
-40 -16 -18 -24 9 -3 43 -6 76 -6 60 0 109 22 131 57 15 24 52 60 112 108 81
65 137 123 130 135 -9 15 -41 12 -55 -5z"/>
<path d="M5492 4112 c33 -29 80 -47 107 -43 8 1 17 -2 20 -8 4 -6 33 -23 65
-39 44 -23 59 -26 63 -16 11 29 -3 49 -40 56 -20 5 -53 11 -73 16 -21 4 -36
12 -34 17 1 6 -20 13 -46 18 -27 4 -57 12 -66 17 -31 18 -29 11 4 -18z"/>
<path d="M3250 4108 c0 -13 4 -29 9 -37 6 -10 -3 -26 -31 -55 -22 -23 -47 -51
-55 -63 -25 -37 -67 -31 -94 15 -25 41 -59 73 -71 66 -18 -11 -6 -56 31 -111
54 -82 66 -91 93 -67 12 11 30 26 40 34 11 8 34 29 51 45 37 35 103 85 112 85
19 0 65 47 65 67 0 27 -12 29 -44 8 -27 -18 -69 -7 -79 19 -9 24 -27 19 -27
-6z"/>
<path d="M1632 4080 c2 -33 8 -46 21 -48 24 -5 22 33 -4 66 l-20 26 3 -44z"/>
<path d="M1973 4113 c-27 -5 -47 -28 -38 -44 4 -6 18 -9 31 -6 14 2 27 0 30
-5 4 -5 16 -7 29 -4 13 3 43 -4 73 -19 60 -29 78 -31 86 -9 9 23 1 31 -36 37
-86 15 -104 21 -121 38 -10 11 -21 18 -25 18 -4 -1 -17 -4 -29 -6z"/>
<path d="M5173 4094 c-3 -8 -3 -37 0 -64 5 -42 2 -54 -17 -77 -28 -35 -50 -88
-41 -102 9 -15 30 -14 44 3 7 8 28 17 48 21 34 6 82 40 83 57 0 4 -16 4 -35 1
-30 -5 -35 -3 -33 13 5 43 -15 153 -28 158 -8 3 -17 -1 -21 -10z"/>
<path d="M3580 4065 c0 -19 5 -44 12 -54 9 -15 8 -24 -6 -43 -9 -12 -28 -38
-41 -57 -14 -19 -25 -40 -25 -48 0 -19 30 -28 49 -14 9 6 28 16 43 22 15 6 25
16 22 23 -3 8 1 20 9 28 13 12 12 17 -4 37 -11 13 -19 35 -19 50 1 47 -12 91
-26 91 -9 0 -14 -12 -14 -35z"/>
<path d="M2868 4049 c3 -30 8 -39 20 -37 24 5 27 36 6 59 -25 28 -30 24 -26
-22z"/>
<path d="M1507 4073 c-4 -3 -7 -17 -7 -30 0 -12 -4 -23 -10 -23 -5 0 -10 -17
-10 -38 0 -20 -9 -61 -19 -89 -16 -44 -17 -54 -5 -64 11 -9 14 -6 14 18 0 19
13 47 35 76 35 46 40 68 29 126 -6 30 -14 38 -27 24z"/>
<path d="M2415 3944 c-59 -54 -116 -93 -216 -146 -46 -25 -48 -28 -30 -38 16
-8 28 -7 53 5 73 36 116 64 167 113 31 29 65 52 80 54 29 3 41 37 19 56 -11 9
-27 -1 -73 -44z"/>
<path d="M1613 3957 c-13 -18 -23 -39 -23 -45 0 -7 -7 -24 -16 -37 -14 -21
-14 -26 -2 -30 22 -9 108 44 108 66 0 10 -6 19 -12 19 -9 0 -8 4 2 10 12 7 12
13 4 27 -18 29 -37 26 -61 -10z"/>
<path d="M4483 3974 c-8 -4 -8 -12 3 -32 8 -15 14 -35 14 -45 0 -26 34 -17 38
9 4 25 -37 74 -55 68z"/>
<path d="M2914 3925 c-9 -21 13 -69 46 -103 15 -16 29 -33 31 -39 5 -12 69
-26 69 -15 0 4 -23 32 -51 62 -28 30 -56 67 -61 82 -11 31 -25 36 -34 13z"/>
<path d="M1762 3903 c2 -13 14 -19 41 -21 20 -2 37 1 37 5 0 18 -25 33 -53 33
-22 0 -28 -4 -25 -17z"/>
<path d="M3717 3899 c-18 -20 -18 -20 20 -17 26 2 38 8 38 18 0 22 -37 22 -58
-1z"/>
<path d="M5380 3912 c0 -16 24 -32 49 -32 23 0 24 1 6 20 -18 20 -55 28 -55
12z"/>
<path d="M3800 3895 c0 -8 7 -15 15 -15 8 0 15 7 15 15 0 8 -7 15 -15 15 -8 0
-15 -7 -15 -15z"/>
<path d="M4546 3872 c-13 -21 33 -101 61 -108 51 -13 55 4 13 46 -22 22 -44
40 -49 40 -5 0 -11 8 -13 18 -3 13 -5 14 -12 4z"/>
<path d="M1671 3795 c-49 -12 -67 -35 -29 -35 53 0 77 -2 163 -13 50 -5 94
-14 100 -19 13 -12 25 -10 25 5 0 11 -193 81 -210 76 -3 -1 -25 -7 -49 -14z"/>
<path d="M5245 3798 c-49 -17 -60 -24 -64 -43 -3 -16 2 -17 40 -10 75 14 205
8 269 -12 19 -6 52 -14 73 -18 34 -5 38 -4 35 12 -3 14 -14 19 -60 21 -34 2
-61 9 -68 17 -7 8 -23 15 -37 15 -13 0 -40 7 -60 15 -40 17 -83 18 -128 3z"/>
<path d="M1457 3794 c-9 -10 2 -24 19 -24 8 0 14 7 14 15 0 15 -21 21 -33 9z"/>
<path d="M3170 3785 c-10 -12 -10 -19 -2 -27 14 -14 72 8 72 28 0 19 -54 18
-70 -1z"/>
<path d="M3638 3788 c-30 -11 -37 -35 -13 -44 8 -4 38 1 65 10 37 12 56 14 70
6 27 -14 63 -12 86 5 17 13 14 14 -41 13 -33 -1 -70 4 -82 10 -26 14 -48 14
-85 0z"/>
<path d="M5030 3785 c0 -12 28 -35 44 -35 14 0 4 30 -13 40 -26 13 -31 13 -31
-5z"/>
<path d="M6488 3783 c-32 -2 -58 -8 -58 -13 0 -6 9 -10 20 -10 11 0 20 -5 20
-11 0 -8 13 -9 43 -4 23 3 57 9 75 12 18 3 31 10 29 17 -4 12 -41 15 -129 9z"/>
<path d="M6660 3765 c-11 -13 -6 -15 33 -15 27 0 49 6 57 15 11 13 6 15 -33
15 -27 0 -49 -6 -57 -15z"/>
<path d="M3085 3740 c3 -5 13 -10 21 -10 8 0 12 5 9 10 -3 6 -13 10 -21 10 -8
0 -12 -4 -9 -10z"/>
<path d="M2067 3733 c-12 -12 -7 -22 8 -17 8 4 15 10 15 15 0 11 -14 12 -23 2z"/>
<path d="M6355 3730 c-3 -6 5 -10 19 -10 14 0 28 5 31 10 3 6 -5 10 -19 10
-14 0 -28 -4 -31 -10z"/>
</g>
</svg>
