<?xml version="1.0" standalone="no"?>
<!DOCTYPE svg PUBLIC "-//W3C//DTD SVG 20010904//EN"
 "http://www.w3.org/TR/2001/REC-SVG-20010904/DTD/svg10.dtd">
<svg version="1.0" xmlns="http://www.w3.org/2000/svg"
 width="300.000000pt" height="300.000000pt" viewBox="0 0 300.000000 300.000000"
 preserveAspectRatio="xMidYMid meet">
<metadata>
Created by potrace 1.10, written by Peter Selinger 2001-2011
</metadata>
<g transform="translate(0.000000,300.000000) scale(0.100000,-0.100000)"
fill="#000000" stroke="none">
<path d="M1343 2690 c-537 -76 -951 -507 -1004 -1044 -34 -352 95 -703 347
-946 229 -220 497 -330 808 -330 466 0 862 252 1062 674 70 147 95 255 101
432 7 183 -5 280 -53 423 -129 389 -440 673 -844 771 -97 23 -318 34 -417 20z
m253 -24 c8 -3 12 -2 9 4 -9 14 11 12 27 -2 7 -7 33 -13 58 -12 24 1 56 -2 70
-6 l25 -7 -28 -8 c-15 -4 -42 -4 -60 -1 -85 16 -275 17 -366 2 -62 -10 -98
-12 -106 -6 -7 5 -16 6 -20 2 -5 -4 -5 -2 -1 5 3 6 14 12 24 13 63 3 137 9
137 10 0 1 22 3 50 6 27 3 50 6 51 7 5 4 116 -2 130 -7z m-388 -47 c10 0 -3
-8 -28 -18 -33 -14 -50 -16 -64 -9 -13 7 -16 7 -12 -1 4 -5 -3 -15 -15 -22
-17 -9 -23 -8 -30 2 -6 11 -11 11 -21 1 -9 -9 -9 -12 3 -12 7 0 -12 -14 -44
-29 -32 -16 -65 -35 -73 -42 -13 -10 -17 -10 -26 2 -8 11 -9 11 -5 -3 7 -21
-35 -50 -60 -42 -13 4 -14 3 -5 -4 10 -7 7 -13 -13 -26 -15 -10 -48 -40 -75
-67 -47 -48 -77 -67 -49 -31 13 15 12 16 -3 3 -10 -7 -15 -18 -11 -24 4 -6 1
-7 -7 -2 -9 6 -11 4 -5 -5 4 -7 3 -15 -2 -19 -5 -3 -25 -27 -44 -52 -19 -25
-41 -43 -48 -41 -9 3 -11 -2 -6 -17 4 -13 2 -21 -5 -21 -6 0 -8 -5 -5 -10 3
-6 -1 -13 -9 -16 -9 -3 -16 -15 -16 -26 0 -14 -5 -18 -16 -14 -9 3 -12 2 -8
-5 8 -13 -26 -90 -36 -84 -9 6 -23 -33 -21 -56 1 -9 -4 -29 -10 -45 -7 -16
-11 -33 -10 -37 1 -5 -2 -6 -7 -3 -4 2 -8 -10 -8 -27 0 -18 -4 -41 -8 -52 -11
-24 -12 -34 -15 -105 -1 -45 -4 -52 -12 -36 -17 29 -12 151 7 164 5 4 10 21
10 37 2 40 16 90 42 148 12 26 20 49 19 51 -1 2 7 14 18 26 11 12 19 25 17 29
-5 13 90 151 100 145 6 -4 8 -2 5 3 -7 12 77 107 96 109 29 4 31 6 12 14 -19
8 -19 9 3 9 13 1 21 5 17 10 -3 5 0 13 6 17 8 5 10 2 5 -7 -4 -8 2 -3 13 11
11 14 21 21 21 15 1 -5 5 -1 10 10 10 26 128 108 142 99 6 -4 8 -3 5 3 -4 6
26 27 71 48 93 45 186 76 190 64 2 -5 11 -9 20 -10z m660 2 c29 -10 58 -23 65
-30 6 -6 17 -11 25 -11 7 0 10 -4 7 -10 -3 -6 1 -7 10 -4 16 7 125 -44 125
-57 0 -4 -7 -10 -16 -13 -19 -7 -54 10 -72 35 -7 10 -19 16 -26 13 -7 -3 -20
1 -27 9 -8 7 -20 12 -28 9 -9 -3 -11 0 -6 8 5 8 4 11 -3 6 -6 -3 -34 3 -64 15
-29 11 -54 20 -55 20 -11 -4 -23 1 -23 9 0 5 7 7 15 4 8 -4 15 -1 15 5 0 14
-4 14 58 -8z m-107 -25 c320 -81 575 -287 721 -581 63 -126 93 -236 108 -394
29 -317 -87 -631 -319 -862 -168 -167 -356 -266 -583 -305 -134 -23 -340 -15
-468 19 -400 105 -710 432 -795 838 -74 350 35 723 288 988 150 156 379 277
587 311 41 6 82 13 90 15 8 2 74 2 145 0 94 -3 157 -11 226 -29z m371 -119
c-2 -11 2 -15 12 -11 18 7 88 -44 80 -57 -3 -5 0 -8 8 -7 7 2 12 -3 10 -10 -1
-8 2 -11 8 -7 7 4 14 -2 17 -13 3 -11 10 -19 17 -16 6 2 25 -10 41 -27 29 -32
19 -31 -19 0 -11 9 -7 -1 9 -21 18 -22 32 -33 36 -26 4 6 12 7 18 4 15 -10 14
-29 -1 -20 -8 4 -10 3 -5 -2 5 -5 12 -8 15 -7 11 3 42 -29 37 -37 -3 -4 9 -21
26 -38 17 -17 28 -35 24 -41 -9 -16 3 -48 20 -55 12 -4 12 0 -2 22 -9 15 -12
23 -6 17 25 -23 65 -109 61 -130 -4 -18 -1 -22 10 -17 10 3 13 1 8 -6 -4 -7
-3 -12 2 -12 5 0 15 -19 22 -42 7 -24 15 -50 18 -58 8 -21 7 -20 19 -80 19
-91 23 -131 12 -125 -5 4 -9 -6 -9 -20 0 -18 4 -24 13 -19 8 5 8 2 -2 -9 -7
-9 -9 -17 -3 -17 13 0 25 -61 13 -73 -5 -5 -11 -1 -15 8 -3 9 -2 13 4 10 12
-7 12 -3 4 19 -3 9 -10 13 -15 10 -5 -3 -9 23 -9 58 0 35 -5 79 -11 98 -5 19
-10 59 -10 88 0 28 -4 52 -9 52 -6 0 -9 3 -9 8 1 4 1 18 -1 32 -1 23 -2 23
-10 5 -8 -18 -9 -18 -9 -2 -1 10 -7 30 -15 45 -8 15 -16 36 -18 47 -1 11 -9
26 -15 33 -20 20 -16 37 5 21 15 -13 16 -12 3 3 -7 10 -17 15 -22 13 -4 -3
-16 9 -25 27 -9 17 -23 38 -30 46 -8 7 -14 20 -14 28 0 8 -7 17 -16 21 -13 5
-13 7 -2 14 8 5 9 9 2 9 -6 0 -47 36 -90 81 -44 44 -112 106 -151 136 -40 31
-70 60 -67 65 10 15 39 3 36 -15z m-1759 -871 c8 -20 -1 -158 -11 -168 -4 -4
-9 28 -11 72 -1 56 2 80 10 80 8 0 8 4 -1 15 -7 9 -8 15 -2 15 5 0 12 -6 15
-14z m2276 -134 c0 -14 -2 -13 -8 3 -7 17 -8 16 -15 -9 -4 -16 -2 -33 4 -41 7
-8 9 -22 6 -32 -3 -10 -6 -37 -8 -60 -1 -31 -5 -40 -14 -32 -8 7 -10 1 -8 -23
4 -36 -33 -175 -49 -185 -6 -4 -7 -1 -2 7 5 9 4 11 -4 6 -9 -6 -9 -11 0 -22 6
-8 7 -14 2 -14 -6 0 -18 -20 -27 -44 -12 -31 -22 -43 -32 -39 -9 3 -14 -1 -14
-12 0 -9 4 -13 10 -10 6 3 7 -1 3 -10 -4 -12 -8 -13 -13 -5 -5 9 -9 9 -14 1
-4 -6 -4 -15 -1 -21 3 -6 -1 -7 -9 -4 -11 4 -16 0 -16 -11 0 -9 5 -13 11 -9
21 13 -14 -40 -57 -86 -24 -26 -44 -52 -44 -59 0 -6 -5 -11 -11 -11 -5 0 -7 5
-3 11 4 8 0 8 -15 0 -24 -13 -28 -23 -6 -15 27 11 16 -6 -42 -61 -54 -52 -82
-64 -90 -40 -4 14 48 44 67 38 12 -4 12 -3 2 5 -11 7 -5 18 26 48 22 22 57 59
77 84 21 25 45 45 53 45 8 0 17 6 20 13 2 6 -1 12 -8 12 -6 0 -8 -5 -4 -12 5
-7 3 -8 -6 -3 -10 6 -10 11 3 20 10 7 17 16 17 20 0 5 15 31 33 59 17 27 41
73 53 100 12 28 26 50 32 49 7 -2 9 7 6 26 -3 16 -2 31 4 34 5 4 8 -5 6 -21
-4 -27 -4 -27 4 -2 5 14 7 35 6 48 -1 12 2 19 8 16 6 -4 9 4 7 17 -3 32 12
129 20 129 3 0 5 20 3 44 -4 46 12 91 29 81 5 -4 9 -14 8 -23z m-2259 -64 c-1
-35 -1 -67 0 -73 1 -5 2 -13 1 -17 0 -5 4 -8 11 -8 6 0 9 -3 5 -6 -3 -3 -2
-16 3 -28 4 -13 4 -29 -1 -39 -7 -11 -6 -23 1 -35 11 -16 11 -16 6 0 -3 10 -1
20 3 23 5 2 11 -8 14 -23 10 -54 17 -76 27 -86 5 -5 10 -21 10 -34 0 -13 4
-21 9 -18 5 3 12 -6 16 -22 3 -15 12 -34 20 -42 7 -8 31 -45 53 -81 22 -36 51
-78 64 -92 12 -14 28 -31 34 -39 16 -19 114 -109 149 -136 17 -13 24 -21 18
-17 -7 3 -13 1 -13 -5 0 -7 -6 -10 -12 -7 -7 2 -12 11 -10 20 1 8 -2 18 -8 22
-6 3 -7 0 -4 -9 9 -23 -7 -19 -39 9 -16 14 -25 30 -22 35 3 6 1 10 -5 10 -14
0 -73 40 -67 46 2 2 -20 28 -47 58 -47 51 -120 166 -96 151 5 -3 10 -2 10 3 0
14 -26 33 -33 25 -4 -3 -7 3 -7 15 0 12 -4 22 -8 22 -4 0 -14 17 -21 38 -8 20
-22 56 -32 78 -22 51 -41 132 -34 145 4 5 2 9 -4 9 -5 0 -10 8 -10 18 -1 9 -3
33 -5 52 -4 31 11 100 22 100 2 0 3 -28 2 -62z m1794 -776 c9 -15 -21 -42 -40
-36 -14 4 -15 3 -5 -4 10 -7 7 -13 -15 -24 -16 -8 -59 -32 -96 -52 -38 -21
-68 -33 -68 -27 0 6 -7 11 -15 11 -8 0 -15 -4 -15 -10 0 -5 5 -10 12 -10 16 0
4 -10 -18 -14 -11 -3 -31 -9 -45 -14 -15 -6 -30 -8 -33 -5 -3 4 -6 2 -6 -4 0
-12 -43 -23 -101 -27 -20 -2 -43 -7 -50 -12 -23 -14 -283 -17 -369 -5 -44 7
-97 19 -118 27 l-37 14 40 -5 c29 -3 34 -2 20 5 -11 5 -41 9 -67 9 -26 1 -50
6 -54 13 -5 7 -3 8 6 3 9 -5 11 -4 6 3 -5 8 -13 9 -24 3 -11 -5 -32 -2 -59 11
-45 20 -54 34 -28 45 22 8 33 -6 15 -17 -9 -6 -10 -10 -3 -10 6 0 15 5 18 10
10 16 25 2 18 -16 -5 -14 -1 -15 25 -9 19 4 41 1 59 -8 16 -8 50 -18 76 -22
26 -4 50 -11 53 -16 3 -5 20 -9 37 -9 19 0 27 -3 20 -8 -7 -4 70 -8 171 -8
103 1 184 5 183 10 -1 5 8 9 20 11 12 1 20 -2 17 -7 -3 -4 -1 -8 5 -8 5 0 11
5 13 11 2 7 33 20 68 29 36 10 74 21 84 25 15 7 18 5 12 -6 -4 -8 -1 -6 7 3
18 23 64 40 72 27 4 -5 11 -6 17 -3 6 4 5 9 -3 15 -17 10 34 31 55 23 8 -3 17
0 22 7 4 8 3 10 -4 5 -7 -4 -12 -3 -12 3 0 10 38 27 53 23 4 -1 7 4 7 11 0 6
12 19 28 29 32 19 39 21 46 10z m-1318 -19 c16 -6 16 -7 -2 -14 -15 -6 -12 -8
14 -8 19 -1 31 -5 27 -11 -3 -5 0 -7 9 -4 17 7 42 -31 26 -41 -5 -3 -10 2 -11
12 0 10 -3 13 -5 6 -4 -7 -22 -1 -54 19 -27 17 -47 35 -44 39 6 11 17 11 40 2z
m114 -85 c0 -26 -25 -17 -26 9 -1 14 3 20 12 16 8 -3 14 -14 14 -25z"/>
<path d="M1145 2610 c-3 -5 -1 -10 4 -10 6 0 11 5 11 10 0 6 -2 10 -4 10 -3 0
-8 -4 -11 -10z"/>
<path d="M1070 2590 c-13 -8 -12 -10 3 -10 9 0 17 5 17 10 0 12 -1 12 -20 0z"/>
<path d="M620 2255 c-7 -9 -8 -15 -2 -15 5 0 12 7 16 15 3 8 4 15 2 15 -2 0
-9 -7 -16 -15z"/>
<path d="M1857 2609 c7 -7 15 -10 18 -7 3 3 -2 9 -12 12 -14 6 -15 5 -6 -5z"/>
<path d="M2035 2520 c3 -5 14 -10 23 -10 15 0 15 2 2 10 -20 13 -33 13 -25 0z"/>
<path d="M1158 2523 c7 -3 16 -2 19 1 4 3 -2 6 -13 5 -11 0 -14 -3 -6 -6z"/>
<path d="M1818 2523 c7 -3 16 -2 19 1 4 3 -2 6 -13 5 -11 0 -14 -3 -6 -6z"/>
<path d="M550 1747 c-14 -12 -41 -34 -59 -49 -24 -21 -31 -33 -26 -48 5 -15
12 -19 31 -14 l24 6 1 -113 c1 -63 3 -127 4 -144 1 -16 -3 -47 -10 -67 -15
-46 0 -67 33 -47 16 10 31 10 76 -1 49 -12 60 -11 101 4 58 23 135 97 171 167
22 43 28 68 29 122 0 55 3 68 17 73 34 10 38 -5 38 -152 0 -148 7 -183 44
-213 13 -11 25 -5 73 34 66 53 70 60 53 80 -9 11 -16 12 -25 5 -18 -15 -22 19
-24 180 -2 142 -15 191 -54 198 -10 2 -44 -20 -80 -51 l-62 -55 -20 31 c-23
37 -89 77 -126 77 -15 0 -42 -14 -64 -33 l-39 -34 -21 31 c-26 38 -52 43 -85
13z m61 -3 c8 -10 19 -28 24 -41 l10 -25 48 42 c42 37 52 41 81 36 19 -4 53
-23 76 -44 98 -87 79 -258 -40 -366 -55 -50 -98 -69 -145 -66 -22 1 -64 3 -93
3 -45 0 -52 3 -45 16 4 9 9 85 11 168 3 171 -3 197 -45 187 -16 -4 -24 -3 -22
3 5 13 110 103 120 103 3 0 13 -7 20 -16z m455 -5 c17 -18 19 -40 22 -173 3
-181 6 -199 31 -191 39 12 29 -13 -21 -54 -28 -22 -54 -41 -58 -41 -4 0 -15 9
-26 21 -17 18 -20 42 -24 183 l-5 161 -36 -1 c-23 0 -35 4 -32 10 5 12 114
105 124 106 3 0 14 -9 25 -21z"/>
<path d="M667 1658 c-27 -20 -27 -20 -27 -147 l0 -127 59 -13 c32 -7 67 -11
77 -9 85 16 29 277 -66 310 -9 3 -28 -3 -43 -14z m84 -38 c36 -45 64 -149 52
-197 -12 -51 -30 -59 -97 -43 l-56 13 0 115 c0 94 3 119 17 134 24 26 51 19
84 -22z"/>
<path d="M1167 1717 c-44 -40 -57 -57 -51 -70 5 -13 13 -17 30 -13 19 5 25 2
30 -18 7 -30 0 -284 -10 -311 -10 -32 7 -50 34 -35 17 9 37 9 91 -1 l69 -12
60 59 c45 44 59 64 54 77 -4 12 -12 16 -23 11 -28 -12 -80 -16 -116 -10 l-35
7 0 158 c0 145 -2 161 -21 185 -11 14 -28 26 -37 26 -9 -1 -43 -24 -75 -53z
m99 29 c17 -13 19 -30 22 -189 l3 -174 56 -7 c39 -5 63 -2 84 8 49 25 42 0
-17 -56 -51 -48 -60 -53 -93 -48 -20 3 -62 5 -94 4 -49 0 -57 2 -50 15 10 19
16 296 8 329 -4 18 -11 23 -32 20 -14 -2 -27 2 -29 7 -2 9 103 103 117 104 3
1 14 -5 25 -13z"/>
<path d="M1501 1720 c-33 -29 -61 -55 -61 -58 1 -18 17 -29 40 -28 l25 1 5
-155 c5 -153 11 -182 44 -209 13 -11 25 -6 76 35 61 50 73 80 32 78 -12 0 -22
0 -23 0 0 1 -3 73 -6 161 -5 166 -17 216 -55 223 -8 2 -43 -20 -77 -48z m95
19 c17 -19 19 -40 22 -182 3 -158 10 -191 37 -181 7 3 16 1 19 -4 7 -12 -93
-94 -108 -89 -6 2 -19 19 -28 38 -15 27 -18 61 -18 175 0 147 -7 172 -41 154
-31 -17 -33 9 -2 33 15 12 41 34 58 49 36 33 37 33 61 7z"/>
<path d="M1697 1717 c-63 -57 -70 -87 -19 -84 l27 2 3 -142 c2 -105 -1 -151
-12 -176 -12 -30 -12 -35 3 -44 12 -8 23 -8 36 0 13 7 37 6 80 -2 79 -16 106
-5 199 80 l68 63 -5 45 c-5 44 -38 88 -78 104 -10 4 -4 13 19 32 26 22 32 33
32 67 0 32 -7 47 -34 74 -44 44 -75 44 -133 -1 l-45 -35 -22 33 c-32 47 -53
44 -119 -16z m101 30 c6 -6 13 -24 17 -40 4 -15 9 -27 12 -27 2 0 28 18 57 40
29 22 58 40 64 40 44 0 92 -55 92 -107 0 -21 -10 -35 -42 -57 l-41 -29 36 -18
c45 -24 77 -64 77 -99 0 -20 -16 -42 -64 -89 -80 -76 -119 -94 -172 -79 -21 5
-61 8 -87 4 -44 -5 -48 -3 -41 12 5 9 10 88 12 175 4 172 -1 192 -44 181 -37
-10 -28 7 34 58 61 50 74 55 90 35z"/>
<path d="M1848 1662 c-26 -15 -28 -21 -28 -85 l0 -69 40 32 c73 57 95 101 68
128 -17 17 -48 15 -80 -6z m70 -4 c7 -7 12 -16 12 -20 0 -12 -81 -98 -91 -98
-5 0 -9 22 -9 49 0 39 4 52 23 64 27 19 49 21 65 5z"/>
<path d="M1820 1437 l0 -42 65 -24 c71 -25 95 -19 95 21 0 50 -51 88 -120 88
l-40 0 0 -43z m100 18 c49 -25 69 -85 29 -85 -12 0 -43 8 -70 17 -45 16 -49
20 -49 50 0 30 3 33 30 33 17 0 44 -7 60 -15z"/>
<path d="M2116 1718 c-43 -40 -56 -57 -51 -70 5 -13 14 -16 31 -12 16 4 24 2
24 -7 4 -100 -3 -316 -10 -329 -14 -26 10 -43 43 -31 16 6 50 6 96 -1 70 -10
70 -10 108 20 71 57 108 101 95 114 -9 9 -18 9 -37 0 -14 -7 -57 -12 -95 -12
l-70 0 0 40 0 40 58 0 c50 0 61 4 90 31 17 16 32 39 32 50 0 17 -7 19 -90 19
l-90 0 0 46 c0 38 3 45 18 40 76 -22 86 -20 151 34 34 28 61 56 59 62 -2 5
-45 12 -96 14 -74 3 -97 1 -117 -12 -24 -15 -27 -15 -44 0 -28 25 -44 20 -105
-36z m102 18 l19 -25 22 22 c19 20 32 22 116 22 52 0 95 -2 94 -5 0 -3 -27
-26 -59 -53 -57 -47 -59 -47 -102 -37 -70 16 -69 16 -66 -47 l3 -58 83 1 c72
0 82 -2 82 -17 0 -32 -53 -59 -114 -59 l-56 0 0 -50 0 -50 81 0 c44 0 89 5 99
10 43 23 24 -9 -35 -61 l-63 -56 -63 9 c-35 5 -81 6 -103 3 -34 -5 -37 -4 -30
12 13 28 17 304 5 336 -9 23 -15 26 -37 21 -17 -4 -25 -3 -23 3 5 13 110 103
120 103 4 0 16 -11 27 -24z"/>
<path d="M2328 1713 c7 -3 16 -2 19 1 4 3 -2 6 -13 5 -11 0 -14 -3 -6 -6z"/>
<path d="M2170 2442 c0 -4 9 -15 20 -25 11 -9 20 -13 20 -9 0 4 -9 15 -20 25
-11 9 -20 13 -20 9z"/>
<path d="M2506 1023 c-6 -14 -5 -15 5 -6 7 7 10 15 7 18 -3 3 -9 -2 -12 -12z"/>
<path d="M2285 730 c-3 -5 -1 -10 4 -10 6 0 11 5 11 10 0 6 -2 10 -4 10 -3 0
-8 -4 -11 -10z"/>
<path d="M2265 700 c3 -5 8 -10 11 -10 2 0 4 5 4 10 0 6 -5 10 -11 10 -5 0 -7
-4 -4 -10z"/>
<path d="M525 950 c3 -5 8 -10 11 -10 2 0 4 5 4 10 0 6 -5 10 -11 10 -5 0 -7
-4 -4 -10z"/>
<path d="M560 889 c0 -8 8 -22 18 -30 9 -9 22 -24 28 -34 8 -15 12 -16 19 -5
5 9 4 11 -3 6 -7 -4 -12 -3 -12 1 0 5 -11 24 -25 43 -14 19 -25 27 -25 19z"/>
<path d="M670 758 c0 -2 9 -11 20 -21 11 -9 20 -13 20 -7 0 5 -9 14 -20 20
-11 6 -20 9 -20 8z"/>
<path d="M740 686 c0 -2 7 -9 15 -16 13 -11 14 -10 9 4 -5 14 -24 23 -24 12z"/>
<path d="M2015 530 c-3 -6 1 -7 9 -4 18 7 21 14 7 14 -6 0 -13 -4 -16 -10z"/>
<path d="M1765 440 l-30 -8 27 -1 c15 0 30 4 33 9 3 6 5 9 3 9 -2 -1 -16 -5
-33 -9z"/>
</g>
</svg>
