 <svg  version="1.0" xmlns="http://www.w3.org/2000/svg"  width="450.000000pt" height="450.000000pt" viewBox="0 0 450.000000 450.000000"  preserveAspectRatio="xMidYMid meet">  <g transform="translate(0.000000,450.000000) scale(0.100000,-0.100000)" fill="#a904f6" stroke="none"> <path d="M2100 4043 c-576 -56 -1064 -363 -1358 -853 -115 -193 -206 -462 -233 -690 -25 -218 0 -484 67 -714 127 -440 478 -852 899 -1055 244 -118 439 -166 725 -178 106 -4 167 -1 286 16 175 25 229 38 362 87 487 182 847 541 1043 1037 25 62 75 262 88 347 48 318 0 672 -131 964 -91 204 -212 381 -358 526 -300 297 -644 462 -1065 510 -85 9 -246 11 -325 3z m349 -25 c25 -5 53 -12 61 -15 8 -3 36 -7 61 -9 26 -2 73 -11 105 -20 33 -9 77 -20 99 -25 22 -6 58 -19 80 -29 22 -10 61 -26 87 -36 26 -9 45 -20 42 -25 -3 -5 1 -6 9 -3 8 3 19 -2 26 -10 7 -8 18 -13 25 -10 7 3 19 -3 27 -12 12 -15 12 -17 0 -9 -10 5 -12 4 -7 -3 4 -7 2 -12 -5 -12 -7 0 -9 -3 -6 -6 4 -4 13 -1 22 6 13 10 19 10 33 -4 10 -9 22 -16 26 -16 9 0 106 -61 106 -66 0 -2 -10 -13 -22 -25 l-23 -21 22 11 c12 6 25 15 28 21 3 5 12 7 20 4 8 -4 12 -10 9 -15 -3 -5 1 -9 9 -9 18 0 49 -34 40 -44 -4 -4 0 -4 9 -1 11 4 18 0 23 -14 3 -12 12 -21 18 -21 7 0 24 -12 37 -28 14 -15 36 -35 50 -44 25 -16 25 -16 5 -33 -20 -16 -19 -16 3 -5 26 13 52 -1 52 -27 0 -8 5 -11 11 -8 6 4 13 -2 16 -14 3 -12 10 -21 15 -21 5 0 6 -4 3 -10 -3 -5 0 -10 7 -10 7 0 25 -15 39 -33 33 -41 99 -145 98 -154 0 -3 6 -10 15 -15 9 -5 16 -19 16 -30 0 -12 3 -18 7 -15 9 10 74 -125 68 -141 -3 -7 -1 -11 3 -8 4 2 14 -10 21 -27 7 -18 19 -45 26 -62 13 -28 57 -180 75 -255 35 -148 42 -445 15 -635 -16 -108 -82 -348 -95 -340 -3 2 -6 -4 -7 -13 -1 -9 -4 -26 -6 -37 -3 -11 -6 -24 -6 -28 -1 -5 -5 -6 -10 -3 -5 4 -12 -7 -16 -24 -4 -17 -11 -27 -17 -24 -6 4 -8 -2 -3 -16 5 -15 4 -20 -4 -16 -6 4 -11 2 -11 -5 0 -6 -8 -18 -17 -26 -10 -8 -12 -12 -5 -8 7 4 12 0 12 -10 0 -11 -5 -15 -15 -12 -8 4 -17 2 -20 -4 -4 -5 -3 -8 2 -7 14 5 10 -16 -10 -50 -15 -26 -22 -30 -33 -21 -9 8 -14 8 -14 1 0 -6 5 -14 10 -17 7 -4 6 -13 -1 -26 -6 -12 -13 -18 -16 -15 -3 3 -15 -12 -25 -34 -11 -22 -24 -40 -29 -40 -5 0 -15 -12 -23 -27 -24 -45 -95 -115 -109 -106 -9 5 -9 3 0 -9 15 -18 5 -32 -13 -17 -9 7 -14 4 -20 -13 -3 -13 -19 -34 -33 -48 -64 -59 -92 -80 -101 -75 -5 3 -29 -15 -53 -40 -24 -25 -50 -44 -58 -42 -8 2 -11 2 -6 0 4 -3 7 -9 7 -14 0 -6 -4 -8 -9 -4 -5 3 -16 -2 -24 -10 -9 -8 -22 -15 -29 -14 -10 0 -10 2 0 6 6 2 9 9 6 15 -3 5 -13 0 -21 -11 -8 -12 -21 -21 -29 -21 -8 0 -12 -5 -9 -11 5 -7 14 -4 26 7 10 9 19 13 19 8 0 -13 -39 -36 -50 -29 -6 4 -10 1 -10 -5 0 -6 -8 -13 -17 -17 -10 -3 -26 -12 -35 -20 -12 -11 -21 -12 -37 -4 -17 10 -19 8 -16 -8 3 -17 -1 -19 -29 -14 -19 3 -36 1 -39 -4 -4 -6 5 -8 21 -6 22 3 19 0 -13 -15 -25 -12 -54 -18 -75 -15 -27 3 -31 2 -20 -6 13 -10 8 -15 -12 -12 -5 0 -8 -4 -8 -9 0 -6 -7 -10 -16 -10 -9 0 -12 5 -8 13 4 6 -1 5 -12 -4 -18 -16 -51 -29 -84 -35 -83 -15 -98 -15 -104 -5 -4 6 -15 11 -24 10 -11 0 -9 -4 8 -11 24 -10 24 -10 5 -18 -76 -29 -426 -33 -592 -7 -124 19 -235 51 -212 60 12 4 11 6 -2 6 -8 1 -19 -3 -25 -8 -9 -9 -42 3 -136 50 -21 10 -38 15 -38 11 0 -4 -5 1 -11 10 -5 10 -15 18 -22 18 -7 0 -6 -4 3 -10 9 -6 10 -10 3 -10 -6 0 -19 7 -27 16 -9 8 -16 12 -16 9 0 -4 -17 3 -37 16 -21 12 -50 29 -66 36 -15 8 -25 19 -21 24 3 5 2 9 -3 8 -14 -4 -63 20 -86 41 -20 20 -21 21 -2 15 16 -5 17 -5 5 3 -8 6 -18 8 -22 5 -12 -7 -39 17 -32 28 3 5 -2 6 -10 3 -9 -3 -16 -1 -16 6 0 6 -5 8 -10 5 -14 -9 -12 8 2 25 11 12 10 12 -4 1 -14 -11 -24 -8 -62 21 -25 18 -45 38 -46 45 0 7 -9 17 -20 23 -10 6 -17 16 -14 23 3 8 -2 14 -10 14 -8 0 -12 -5 -9 -11 4 -6 -3 -3 -14 7 -12 10 -27 32 -33 48 -7 16 -16 26 -21 24 -10 -7 -31 30 -21 39 3 4 -1 4 -11 0 -10 -3 -17 -1 -17 6 0 6 -21 37 -46 68 -26 31 -53 71 -60 87 -7 17 -26 46 -43 65 -17 19 -31 44 -31 55 1 19 1 19 14 3 15 -21 32 -23 42 -6 5 7 3 8 -5 4 -7 -5 -20 -1 -29 7 -9 9 -21 16 -27 17 -5 1 -9 8 -7 16 2 8 -2 14 -7 14 -13 0 -52 75 -44 84 4 3 2 6 -4 6 -10 0 -22 55 -24 108 -1 22 -2 22 -16 5 -10 -12 -13 -13 -10 -3 2 8 -2 25 -9 39 -9 17 -10 30 -3 44 8 14 8 22 -1 31 -8 8 -10 7 -5 -6 4 -10 3 -18 -3 -18 -6 0 -14 17 -17 38 -4 20 -10 48 -15 62 -4 14 -8 43 -9 64 -1 21 -6 47 -11 56 -5 10 -9 37 -8 62 0 24 -3 55 -7 67 -6 18 -4 22 6 15 12 -6 11 -5 0 9 -11 14 -12 46 -7 160 7 145 8 155 20 242 10 73 49 214 57 209 4 -2 10 0 14 6 3 5 1 10 -4 10 -6 0 -11 5 -11 11 0 5 4 8 9 5 5 -3 9 0 8 7 -1 33 4 51 11 40 4 -7 8 4 9 25 2 38 45 137 55 127 3 -3 8 1 12 10 3 10 2 14 -5 9 -6 -3 0 14 12 37 13 24 22 47 21 51 -1 4 5 5 13 2 10 -4 13 -2 10 7 -3 8 11 38 30 67 19 30 35 57 35 62 0 4 6 13 14 19 11 9 15 9 20 -1 3 -7 3 -3 1 8 -4 15 2 28 18 40 13 11 24 23 24 27 1 12 63 81 63 70 1 -8 20 21 22 34 3 14 42 40 60 40 19 0 34 -27 15 -27 -8 0 -6 -4 3 -10 13 -8 12 -11 -5 -24 -11 -8 -24 -12 -29 -9 -5 3 -7 0 -4 -7 6 -18 -23 -48 -40 -42 -8 3 -10 -2 -5 -14 5 -13 3 -15 -7 -9 -9 5 -11 4 -6 -3 4 -6 -2 -17 -14 -24 -11 -7 -20 -17 -20 -23 0 -5 -8 -19 -16 -30 -16 -20 -16 -19 -9 4 5 17 4 21 -5 16 -6 -4 -10 -17 -8 -29 5 -25 -17 -54 -25 -33 -3 7 -6 0 -6 -14 -1 -14 -10 -35 -21 -47 -11 -12 -20 -27 -21 -34 0 -7 -4 -4 -9 7 -8 19 -9 18 -11 -5 -1 -14 -2 -33 -1 -42 1 -11 -3 -15 -13 -12 -11 5 -14 0 -13 -17 3 -20 -1 -24 -20 -22 -19 2 -21 1 -10 -17 10 -15 9 -22 -4 -37 -8 -10 -13 -24 -11 -30 3 -7 0 -13 -6 -13 -6 0 -11 -11 -11 -24 0 -31 -36 -112 -42 -94 -3 7 -5 -2 -5 -21 0 -21 -6 -37 -16 -43 -10 -5 -17 -19 -16 -31 1 -21 2 -20 9 3 7 21 8 22 9 5 1 -12 -4 -26 -11 -33 -7 -7 -8 -12 -3 -12 4 0 0 -10 -11 -22 -10 -12 -13 -18 -6 -14 9 6 11 1 8 -16 -41 -184 -53 -411 -29 -573 8 -55 16 -118 17 -140 2 -22 10 -57 20 -79 11 -25 16 -52 12 -80 -3 -22 -3 -33 0 -23 8 24 21 21 26 -7 4 -19 1 -23 -11 -19 -13 4 -13 3 -2 -5 7 -5 10 -15 7 -21 -4 -6 -2 -11 3 -11 6 0 11 6 11 13 1 6 10 -10 20 -38 11 -27 17 -59 14 -70 -4 -16 -3 -17 5 -5 9 12 11 11 11 -7 0 -13 5 -23 11 -23 5 0 8 -4 4 -9 -3 -5 -1 -12 5 -16 16 -10 32 -45 20 -45 -5 0 -10 7 -10 15 0 8 -4 15 -10 15 -5 0 -10 -4 -10 -9 0 -14 28 -33 39 -27 12 8 25 -30 15 -46 -4 -7 -4 -10 1 -6 9 9 35 -9 35 -24 0 -6 -8 -4 -17 3 -16 13 -17 12 -4 -4 8 -9 16 -15 19 -12 5 5 43 -52 46 -70 4 -22 39 -64 49 -58 6 4 8 0 4 -11 -4 -10 -3 -15 3 -11 12 7 12 3 4 -20 -6 -14 -8 -14 -27 2 -20 18 -20 18 -2 -10 18 -28 19 -28 29 -9 10 18 13 19 30 6 11 -8 16 -14 10 -14 -5 0 -1 -7 10 -15 10 -8 15 -19 10 -26 -4 -7 -3 -10 3 -6 14 9 101 -68 90 -79 -4 -5 -12 -2 -17 6 -6 8 -10 10 -10 4 0 -6 9 -19 19 -28 14 -13 21 -14 27 -5 4 8 3 10 -4 5 -7 -4 -12 -2 -12 3 0 17 18 13 29 -6 6 -10 11 -14 11 -9 0 8 60 -52 60 -61 0 -3 -7 -2 -16 1 -9 3 -12 2 -9 -4 4 -6 12 -10 18 -9 7 1 21 1 32 0 17 -1 18 -3 5 -11 -12 -8 -9 -10 10 -8 19 2 25 -2 25 -16 0 -11 7 -21 15 -23 13 -4 13 -3 0 6 -8 6 -11 11 -6 11 5 0 37 -20 72 -46 35 -25 64 -42 64 -39 0 4 13 -3 29 -14 16 -12 34 -21 39 -21 6 0 17 -8 24 -17 7 -10 24 -20 38 -22 13 -1 55 -18 92 -37 37 -19 75 -34 83 -34 9 0 13 -4 10 -10 -4 -6 7 -8 27 -5 25 4 28 3 13 -3 -16 -7 -11 -9 20 -9 22 1 54 -3 70 -7 l30 -9 -25 -8 c-15 -5 0 -6 40 -3 45 3 59 1 45 -5 -16 -8 -12 -10 20 -9 22 0 78 -5 125 -10 97 -12 404 -11 387 1 -7 5 4 7 25 5 20 -2 35 -1 32 3 -2 4 5 5 16 2 12 -3 20 0 20 7 0 9 11 11 35 7 20 -3 33 -2 30 3 -3 5 11 12 32 16 21 4 55 13 76 20 21 7 35 9 32 4 -3 -6 -1 -10 5 -10 6 0 13 7 16 15 4 8 14 15 23 15 10 0 36 9 59 20 22 11 48 20 57 20 9 0 13 5 10 10 -6 9 10 14 42 13 7 -1 11 3 8 7 -7 12 38 21 49 10 6 -6 15 -10 21 -10 5 0 2 5 -8 11 -14 8 -16 14 -6 25 6 8 19 14 28 14 13 -1 13 -3 -3 -15 -11 -8 -15 -15 -9 -15 12 0 40 31 33 37 -3 2 10 12 28 23 19 12 31 15 27 8 -3 -7 2 -3 11 10 9 12 20 22 25 22 5 0 19 10 31 22 21 21 21 21 36 2 13 -18 14 -18 8 3 -6 17 -1 26 21 40 15 10 36 28 47 41 15 19 21 21 28 10 7 -10 8 -9 4 5 -3 10 0 17 8 17 8 0 16 7 20 15 3 8 16 15 28 16 13 0 17 3 10 6 -10 4 -10 9 3 23 9 10 22 17 28 16 7 -2 9 -1 5 1 -13 7 -9 23 5 23 8 0 20 11 27 25 7 14 17 25 22 25 4 0 8 5 8 10 0 6 15 26 33 46 17 19 40 49 50 67 9 17 17 28 17 23 0 -5 9 3 20 17 11 14 20 32 20 41 0 9 7 19 15 22 8 4 15 12 15 18 0 7 11 23 24 35 14 13 22 30 19 38 -3 8 -2 18 3 22 5 3 14 20 20 36 6 17 15 29 21 28 6 -1 9 6 6 17 -3 11 1 35 8 52 l13 32 8 -24 c7 -23 7 -23 4 3 -4 35 18 117 27 97 3 -8 6 -1 6 15 2 47 26 130 38 130 6 0 15 4 20 9 4 5 3 6 -3 3 -18 -10 -26 38 -15 81 26 97 32 294 14 435 -21 170 -22 177 -13 177 4 0 10 7 13 14 4 10 1 13 -7 10 -15 -6 -36 36 -36 71 0 13 -4 26 -10 30 -5 3 -7 12 -3 20 3 8 1 15 -5 15 -6 0 -8 9 -5 20 3 11 1 20 -5 20 -10 0 -25 30 -28 55 0 6 -7 24 -14 40 -7 17 -13 46 -13 65 0 19 -2 29 -4 23 -3 -7 -8 -13 -13 -13 -15 0 -20 31 -9 53 9 18 9 20 -2 10 -13 -13 -38 -19 -26 -7 3 3 -14 38 -39 77 -24 39 -44 79 -44 89 0 11 -5 15 -15 12 -8 -4 -15 -1 -15 5 0 22 -2 26 -16 34 -13 7 -13 11 -2 25 12 15 11 16 -4 3 -19 -15 -25 -2 -7 16 8 8 7 13 -2 18 -8 5 -10 4 -5 -3 11 -18 -19 -15 -34 3 -7 8 -9 15 -5 15 4 0 -44 50 -105 110 -62 61 -117 110 -121 110 -5 0 -5 7 -2 17 4 11 3 14 -5 9 -14 -8 -52 10 -52 25 0 6 4 8 8 5 11 -7 8 31 -3 41 -4 5 -6 3 -2 -2 3 -6 2 -17 -2 -24 -11 -18 -69 18 -65 41 1 12 -4 15 -18 13 -11 -3 -39 8 -62 23 -39 27 -93 55 -108 56 -13 2 -21 16 -9 16 7 0 9 5 5 11 -5 8 -9 8 -14 -1 -5 -8 -21 -5 -58 11 -28 12 -49 26 -46 31 3 5 10 6 15 3 12 -8 49 4 49 16 0 5 -10 9 -22 9 -19 0 -20 -2 -8 -11 11 -7 7 -9 -17 -5 -18 2 -35 0 -38 -5 -3 -4 -21 0 -40 11 -19 11 -42 17 -50 14 -8 -4 -23 0 -31 7 -9 8 -22 14 -28 14 -14 0 -156 35 -176 43 -8 3 -37 7 -65 8 -49 3 -200 13 -220 14 -26 2 -239 -22 -315 -36 -47 -9 -94 -16 -105 -17 -11 -1 -26 -8 -33 -14 -7 -7 -19 -13 -25 -14 -7 0 -21 -3 -32 -5 -11 -3 -29 -6 -40 -7 -11 -1 -24 -8 -28 -14 -4 -7 -15 -13 -23 -13 -8 0 -28 -7 -44 -15 -16 -8 -44 -17 -62 -19 -18 -2 -32 -8 -31 -13 1 -6 -16 -19 -38 -31 -22 -12 -37 -17 -34 -12 3 5 1 11 -4 15 -6 3 -8 -4 -6 -15 3 -14 0 -20 -8 -17 -7 3 -11 10 -9 16 1 7 -2 10 -8 6 -8 -5 -8 -11 0 -20 12 -15 -14 -30 -33 -18 -7 3 -9 3 -5 -2 4 -4 0 -14 -10 -21 -21 -17 -36 -18 -26 -2 4 7 3 8 -5 4 -6 -4 -9 -12 -6 -17 4 -5 2 -9 -4 -9 -5 0 -23 -14 -40 -31 -28 -27 -34 -29 -49 -18 -15 12 -16 12 -5 -2 14 -18 8 -30 -11 -23 -7 3 -19 -2 -26 -11 -7 -8 -10 -15 -7 -15 3 0 -6 -12 -21 -27 -20 -21 -37 -28 -69 -28 -24 -1 -43 2 -43 6 0 4 13 18 29 32 17 14 28 27 25 30 -8 7 54 30 64 23 6 -4 8 3 4 16 -4 17 -2 20 11 15 11 -4 14 -2 10 9 -4 10 0 12 13 7 12 -4 15 -3 10 5 -4 7 -1 12 7 12 8 0 22 11 31 25 9 14 21 23 25 20 5 -3 12 2 15 11 4 10 12 14 23 10 10 -4 14 -4 11 0 -10 9 20 36 32 29 5 -3 10 -2 10 3 0 6 18 17 40 26 22 9 40 21 40 27 0 5 8 9 18 8 9 -1 26 1 37 5 11 5 26 10 33 12 7 2 11 8 8 13 -4 5 11 15 31 21 21 7 44 17 51 23 6 5 12 6 12 2 0 -4 6 -3 13 2 26 21 74 32 87 20 9 -8 11 -8 7 -1 -10 17 104 48 115 31 5 -9 8 -7 8 4 0 18 64 32 194 44 33 3 62 8 65 11 9 8 278 2 330 -8z m41 -92 c475 -64 914 -359 1175 -791 262 -434 299 -1013 94 -1483 -28 -64 -53 -123 -56 -131 -5 -10 -2 -12 7 -6 9 5 11 4 6 -4 -4 -6 -11 -9 -15 -6 -5 2 -26 -23 -47 -58 -243 -397 -634 -671 -1091 -764 -127 -26 -511 -26 -633 0 -541 116 -975 467 -1191 963 -92 211 -133 417 -133 664 1 307 75 575 232 835 73 121 129 193 236 304 266 274 597 436 991 484 77 10 331 5 425 -7z m-1396 -415 c3 -5 0 -14 -7 -19 -10 -8 -13 -6 -14 9 -2 19 11 26 21 10z m-454 -1836 c0 -5 -5 -3 -10 5 -5 8 -10 20 -10 25 0 6 5 3 10 -5 5 -8 10 -19 10 -25z m265 -355 c10 -11 16 -20 13 -20 -3 0 -13 9 -23 20 -10 11 -16 20 -13 20 3 0 13 -9 23 -20z m2400 -390 c-10 -11 -21 -18 -23 -15 -3 3 3 12 14 20 27 20 30 18 9 -5z"/> <path d="M2447 3969 c7 -7 15 -10 18 -7 3 3 -2 9 -12 12 -14 6 -15 5 -6 -5z"/> <path d="M2698 3953 c7 -3 16 -2 19 1 4 3 -2 6 -13 5 -11 0 -14 -3 -6 -6z"/> <path d="M2698 3933 c7 -3 16 -2 19 1 4 3 -2 6 -13 5 -11 0 -14 -3 -6 -6z"/> <path d="M2778 3923 c7 -3 16 -2 19 1 4 3 -2 6 -13 5 -11 0 -14 -3 -6 -6z"/> <path d="M1600 3880 c-8 -5 -10 -10 -5 -10 6 0 17 5 25 10 8 5 11 10 5 10 -5 0 -17 -5 -25 -10z"/> <path d="M1388 3783 c7 -3 16 -2 19 1 4 3 -2 6 -13 5 -11 0 -14 -3 -6 -6z"/> <path d="M3195 3720 c3 -5 8 -10 11 -10 2 0 4 5 4 10 0 6 -5 10 -11 10 -5 0 -7 -4 -4 -10z"/> <path d="M1127 3596 c-4 -10 1 -12 14 -9 23 6 24 9 5 16 -8 3 -17 0 -19 -7z"/> <path d="M1080 3560 c-8 -5 -12 -12 -9 -15 4 -3 12 1 19 10 14 17 11 19 -10 5z"/> <path d="M1000 3486 c0 -2 7 -7 16 -10 8 -3 12 -2 9 4 -6 10 -25 14 -25 6z"/> <path d="M983 3442 c1 -14 5 -18 11 -12 7 7 6 14 -1 21 -9 9 -12 7 -10 -9z"/> <path d="M3625 3300 c-3 -6 1 -7 9 -4 18 7 21 14 7 14 -6 0 -13 -4 -16 -10z"/> <path d="M3670 3230 c0 -6 4 -9 9 -5 5 3 12 -2 14 -10 4 -12 5 -12 3 1 -1 19 -26 32 -26 14z"/> <path d="M3755 3110 c3 -5 8 -10 11 -10 2 0 4 5 4 10 0 6 -5 10 -11 10 -5 0 -7 -4 -4 -10z"/> <path d="M3806 2975 c-9 -26 -7 -32 5 -12 6 10 9 21 6 23 -2 3 -7 -2 -11 -11z"/> <path d="M670 2910 c0 -5 5 -10 11 -10 5 0 7 5 4 10 -3 6 -8 10 -11 10 -2 0 -4 -4 -4 -10z"/> <path d="M630 2845 c0 -5 5 -17 10 -25 5 -8 10 -10 10 -5 0 6 -5 17 -10 25 -5 8 -10 11 -10 5z"/> <path d="M3850 2836 c0 -8 4 -17 9 -20 5 -4 7 3 4 14 -6 23 -13 26 -13 6z"/> <path d="M592 2735 c0 -16 2 -22 5 -12 2 9 2 23 0 30 -3 6 -5 -1 -5 -18z"/> <path d="M577 2611 c-4 -17 -3 -21 5 -13 5 5 8 16 6 23 -3 8 -7 3 -11 -10z"/> <path d="M3910 2606 c0 -8 5 -18 10 -21 6 -3 10 3 10 14 0 12 -4 21 -10 21 -5 0 -10 -6 -10 -14z"/> <path d="M561 2504 c0 -11 3 -14 6 -6 3 7 2 16 -1 19 -3 4 -6 -2 -5 -13z"/> <path d="M556 2415 c-3 -9 -5 -29 -5 -43 1 -20 3 -17 9 13 8 43 7 57 -4 30z"/> <path d="M3936 2275 c-9 -26 -7 -32 5 -12 6 10 9 21 6 23 -2 3 -7 -2 -11 -11z"/> <path d="M559 2082 c-3 -20 -2 -29 4 -23 5 5 7 19 5 32 -3 20 -5 19 -9 -9z"/> <path d="M580 2021 c0 -6 4 -13 10 -16 6 -3 7 1 4 9 -7 18 -14 21 -14 7z"/> <path d="M3875 1892 c-3 -8 -3 -17 0 -20 3 -3 5 0 5 7 0 7 4 10 9 7 5 -3 11 0 14 7 3 8 -1 14 -9 14 -7 0 -16 -7 -19 -15z"/> <path d="M3881 1814 c0 -11 3 -14 6 -6 3 7 2 16 -1 19 -3 4 -6 -2 -5 -13z"/> <path d="M680 1686 c0 -8 4 -17 9 -20 5 -4 7 3 4 14 -6 23 -13 26 -13 6z"/> <path d="M3818 1623 c7 -3 16 -2 19 1 4 3 -2 6 -13 5 -11 0 -14 -3 -6 -6z"/> <path d="M3700 1410 c0 -5 5 -10 10 -10 6 0 10 5 10 10 0 6 -4 10 -10 10 -5 0 -10 -4 -10 -10z"/> <path d="M3549 1183 c-13 -16 -12 -17 4 -4 16 13 21 21 13 21 -2 0 -10 -8 -17 -17z"/> <path d="M1030 1145 c0 -5 5 -17 10 -25 5 -8 10 -10 10 -5 0 6 -5 17 -10 25 -5 8 -10 11 -10 5z"/> <path d="M1126 1014 c-4 -9 -4 -19 -1 -22 3 -3 5 0 5 7 0 7 4 9 10 6 6 -3 7 1 4 9 -8 20 -10 20 -18 0z"/> <path d="M3278 973 c7 -3 16 -2 19 1 4 3 -2 6 -13 5 -11 0 -14 -3 -6 -6z"/> <path d="M3220 940 c-9 -6 -10 -10 -3 -10 6 0 15 5 18 10 8 12 4 12 -15 0z"/> <path d="M1381 816 c2 -2 15 -9 29 -15 24 -11 24 -11 6 3 -16 13 -49 24 -35 12z"/> <path d="M1538 763 c7 -3 16 -2 19 1 4 3 -2 6 -13 5 -11 0 -14 -3 -6 -6z"/> <path d="M1565 740 c-3 -6 1 -7 9 -4 18 7 21 14 7 14 -6 0 -13 -4 -16 -10z"/> <path d="M2715 680 c3 -5 8 -10 11 -10 2 0 4 5 4 10 0 6 -5 10 -11 10 -5 0 -7 -4 -4 -10z"/> <path d="M1980 630 c-20 -6 -21 -8 -5 -8 11 0 29 3 40 8 25 11 -1 11 -35 0z"/> <path d="M1431 3664 c0 -11 3 -14 6 -6 3 7 2 16 -1 19 -3 4 -6 -2 -5 -13z"/> <path d="M3398 2763 c7 -3 16 -2 19 1 4 3 -2 6 -13 5 -11 0 -14 -3 -6 -6z"/> <path d="M2390 2690 c-9 -6 -10 -10 -3 -10 6 0 15 5 18 10 8 12 4 12 -15 0z"/> <path d="M2595 2689 c-4 -6 -5 -12 -2 -15 2 -3 7 2 10 11 7 17 1 20 -8 4z"/> <path d="M2720 2689 c0 -5 5 -7 10 -4 6 3 10 8 10 11 0 2 -4 4 -10 4 -5 0 -10 -5 -10 -11z"/> <path d="M800 2676 c7 -7 13 -7 20 0 6 6 3 10 -10 10 -13 0 -16 -4 -10 -10z"/> <path d="M784 2584 c-49 -42 -92 -79 -96 -83 -4 -3 1 -17 11 -30 16 -21 21 -22 41 -11 45 24 50 -1 50 -237 0 -173 -3 -220 -16 -253 -15 -38 -15 -42 1 -60 16 -18 19 -18 41 -3 25 16 60 15 160 -5 81 -17 168 23 266 120 164 162 195 393 72 537 -37 43 -142 101 -182 101 -16 0 -48 -20 -89 -56 -35 -31 -65 -55 -67 -53 -1 2 -8 19 -16 37 -13 33 -53 72 -75 72 -6 0 -52 -34 -101 -76z m141 30 c14 -15 25 -36 25 -48 1 -49 15 -47 88 14 79 66 100 72 167 41 47 -21 117 -87 140 -131 88 -169 -34 -448 -239 -550 -68 -34 -92 -36 -182 -14 -60 15 -69 15 -99 1 -42 -20 -59 -7 -39 31 11 21 14 81 14 262 0 129 -4 241 -9 249 -6 10 -20 12 -44 8 -23 -3 -37 -1 -40 6 -5 14 160 156 181 157 7 0 24 -12 37 -26z"/> <path d="M1047 2539 c7 -7 15 -10 18 -7 3 3 -2 9 -12 12 -14 6 -15 5 -6 -5z"/> <path d="M993 2480 l-33 -30 0 -185 c0 -140 3 -186 13 -189 15 -4 90 -24 134 -35 125 -33 161 159 65 350 -38 76 -84 119 -126 119 -12 0 -36 -14 -53 -30z m115 -23 c83 -87 127 -268 88 -362 -20 -48 -50 -53 -146 -24 l-78 24 -2 171 -1 172 37 30 c42 35 60 33 102 -11z"/> <path d="M1068 2423 c7 -3 16 -2 19 1 4 3 -2 6 -13 5 -11 0 -14 -3 -6 -6z"/> <path d="M1176 2147 c3 -10 9 -15 12 -12 3 3 0 11 -7 18 -10 9 -11 8 -5 -6z"/> <path d="M861 2484 c0 -11 3 -14 6 -6 3 7 2 16 -1 19 -3 4 -6 -2 -5 -13z"/> <path d="M988 2003 c7 -3 16 -2 19 1 4 3 -2 6 -13 5 -11 0 -14 -3 -6 -6z"/> <path d="M835 1970 c3 -5 8 -10 11 -10 2 0 4 5 4 10 0 6 -5 10 -11 10 -5 0 -7 -4 -4 -10z"/> <path d="M1462 2584 c-50 -42 -92 -82 -92 -88 0 -7 6 -20 13 -30 10 -14 18 -15 40 -7 43 16 47 -6 47 -236 0 -229 8 -267 65 -311 l27 -21 87 71 c47 39 88 75 90 80 6 18 -31 48 -54 42 -21 -5 -22 -2 -28 93 -4 54 -7 161 -7 238 -1 130 -2 142 -26 182 -20 35 -50 63 -66 63 -2 0 -45 -34 -96 -76z m131 28 c15 -16 32 -44 37 -63 6 -18 10 -131 10 -249 0 -118 4 -221 9 -228 4 -7 21 -12 36 -10 50 5 38 -18 -45 -87 -80 -67 -81 -67 -102 -49 -46 41 -52 76 -56 309 -2 133 -8 225 -14 233 -6 7 -27 11 -47 10 -23 -2 -36 1 -36 9 0 11 163 153 176 153 3 0 17 -13 32 -28z"/> <path d="M1580 2060 c0 -5 5 -10 10 -10 6 0 10 5 10 10 0 6 -4 10 -10 10 -5 0 -10 -4 -10 -10z"/> <path d="M1570 1970 c-9 -6 -10 -10 -3 -10 6 0 15 5 18 10 8 12 4 12 -15 0z"/> <path d="M1758 2579 c-94 -79 -96 -81 -85 -110 8 -20 16 -27 27 -23 68 28 72 16 68 -239 -2 -172 -6 -218 -19 -244 -16 -29 -15 -32 3 -51 18 -18 22 -18 50 -4 26 12 43 13 122 2 50 -6 96 -13 103 -15 6 -2 55 37 108 87 l96 91 -22 23 c-22 23 -23 23 -42 6 -15 -13 -37 -17 -101 -17 -127 1 -116 -22 -116 244 0 127 -4 241 -10 256 -11 29 -57 75 -74 75 -6 0 -55 -36 -108 -81z m127 55 c8 -4 23 -21 32 -38 14 -26 18 -72 21 -272 l4 -241 63 -11 c85 -16 104 -15 147 8 30 16 38 17 47 6 9 -11 -7 -31 -74 -92 -48 -44 -93 -80 -100 -82 -8 -2 -53 4 -99 13 -75 14 -90 14 -120 1 -44 -18 -61 -4 -41 34 11 19 14 79 15 256 0 259 -4 279 -55 256 -23 -11 -30 -11 -36 0 -5 7 -8 16 -6 20 3 10 170 148 179 148 3 0 14 -3 23 -6z"/> <path d="M1998 2003 c7 -3 16 -2 19 1 4 3 -2 6 -13 5 -11 0 -14 -3 -6 -6z"/> <path d="M2267 2591 c-114 -99 -110 -94 -96 -124 11 -24 13 -25 38 -12 15 7 32 10 38 7 7 -5 12 -84 15 -227 3 -204 5 -223 26 -265 12 -25 33 -53 46 -62 23 -17 25 -16 114 55 50 40 91 74 91 77 0 3 -8 16 -18 29 -15 19 -21 22 -38 12 -17 -8 -22 -7 -27 5 -3 9 -6 112 -6 230 0 171 -3 222 -16 252 -16 40 -61 92 -78 91 -6 0 -46 -31 -89 -68z m120 27 c43 -47 46 -64 50 -302 2 -127 6 -237 9 -244 3 -9 13 -12 33 -7 48 10 44 -17 -7 -61 -26 -22 -63 -52 -83 -67 l-37 -28 -25 31 c-40 47 -47 90 -47 303 0 118 -4 206 -10 218 -12 21 -54 26 -66 8 -4 -8 -10 -6 -17 7 -8 15 -2 24 39 58 27 23 64 56 84 73 42 39 50 40 77 11z"/> <path d="M2580 2604 c-113 -95 -124 -108 -110 -134 8 -15 17 -19 28 -14 9 3 26 7 37 8 19 1 20 -6 23 -224 2 -189 0 -232 -14 -268 -16 -42 -16 -44 5 -63 19 -18 23 -19 43 -4 27 18 71 18 153 1 103 -22 136 -6 294 141 82 77 84 80 83 122 -1 24 -12 61 -24 82 -21 37 -82 89 -105 89 -29 0 -18 20 27 51 27 18 51 42 54 54 24 87 -48 198 -136 211 -29 4 -44 -3 -113 -55 l-80 -60 -7 32 c-7 32 -58 88 -81 86 -6 0 -41 -25 -77 -55z m119 12 c12 -13 24 -40 28 -60 3 -20 8 -36 12 -36 3 0 42 27 85 60 86 65 112 72 162 41 34 -20 71 -74 74 -106 7 -68 1 -79 -67 -125 -60 -40 -64 -45 -42 -51 40 -10 83 -36 111 -66 28 -30 53 -103 43 -132 -10 -32 -203 -199 -251 -217 -43 -16 -50 -16 -117 -1 -87 21 -104 21 -138 3 -42 -22 -55 -6 -35 43 13 34 16 80 16 257 0 134 -4 223 -11 235 -8 16 -19 20 -47 17 -27 -2 -37 1 -37 11 0 18 154 150 176 150 8 1 25 -10 38 -23z"/> <path d="M2858 2573 c7 -3 16 -2 19 1 4 3 -2 6 -13 5 -11 0 -14 -3 -6 -6z"/> <path d="M2772 2490 l-42 -30 0 -96 0 -95 46 33 c86 62 142 138 129 178 -6 19 -45 40 -74 40 -10 0 -37 -14 -59 -30z m106 -2 c32 -26 -5 -92 -88 -158 l-40 -32 0 80 0 79 37 26 c37 27 62 28 91 5z"/> <path d="M2798 2253 c7 -3 16 -2 19 1 4 3 -2 6 -13 5 -11 0 -14 -3 -6 -6z"/> <path d="M3047 2253 c-4 -3 -7 -11 -7 -17 0 -6 5 -5 12 2 6 6 9 14 7 17 -3 3 -9 2 -12 -2z"/> <path d="M2737 2213 c-4 -3 -7 -32 -7 -63 l0 -57 78 -27 c42 -15 87 -30 100 -33 30 -7 62 22 62 58 0 35 -52 97 -97 115 -33 14 -125 19 -136 7z m144 -29 c34 -17 79 -70 79 -93 0 -23 -19 -41 -44 -41 -10 0 -52 12 -92 28 l-74 27 0 47 c0 28 5 48 13 52 18 7 88 -4 118 -20z"/> <path d="M2815 2140 c-3 -5 -1 -10 4 -10 6 0 11 5 11 10 0 6 -2 10 -4 10 -3 0 -8 -4 -11 -10z"/> <path d="M3181 2583 c-89 -76 -100 -93 -82 -122 8 -12 14 -13 37 -2 20 9 30 9 38 1 7 -7 11 -89 11 -248 0 -206 -2 -240 -17 -261 -16 -23 -16 -25 4 -41 18 -15 26 -15 59 -3 30 10 57 10 121 3 46 -6 96 -12 111 -14 24 -2 46 13 132 91 104 93 104 94 84 114 -17 17 -22 18 -47 6 -47 -24 -83 -28 -174 -21 l-88 7 0 53 0 54 88 0 88 0 47 48 c33 33 47 56 47 75 l0 27 -135 0 -135 0 0 71 0 71 27 -7 c15 -3 52 -11 81 -16 l53 -10 72 57 c125 101 129 105 111 125 -12 14 -20 15 -44 6 -22 -8 -48 -8 -100 1 -106 18 -127 16 -171 -19 l-39 -31 -31 31 c-17 17 -37 31 -44 31 -7 0 -54 -35 -104 -77z m124 51 c8 -4 23 -20 31 -36 l15 -29 41 36 c46 39 79 43 179 25 36 -7 66 -7 89 0 64 18 52 -7 -40 -80 l-91 -73 -72 13 c-40 7 -78 15 -84 17 -10 4 -13 -16 -13 -81 l0 -86 63 -1 c34 -1 92 0 130 1 64 2 67 1 67 -21 0 -13 -16 -40 -37 -61 l-37 -38 -93 0 -93 0 0 -69 0 -68 38 -7 c67 -11 188 -6 224 8 19 8 40 11 47 7 8 -6 -18 -35 -86 -95 -98 -87 -98 -88 -143 -82 -122 15 -207 18 -227 8 -29 -16 -47 5 -27 32 22 30 21 498 -1 520 -12 12 -22 13 -42 5 -20 -7 -28 -6 -34 3 -9 15 -16 8 86 92 83 69 84 70 110 60z"/> <path d="M1355 2550 c-3 -6 1 -7 9 -4 18 7 21 14 7 14 -6 0 -13 -4 -16 -10z"/> <path d="M1432 2400 c0 -14 2 -19 5 -12 2 6 2 18 0 25 -3 6 -5 1 -5 -13z"/> <path d="M1711 2374 c0 -11 3 -14 6 -6 3 7 2 16 -1 19 -3 4 -6 -2 -5 -13z"/> <path d="M720 2350 c0 -5 5 -10 11 -10 5 0 7 5 4 10 -3 6 -8 10 -11 10 -2 0 -4 -4 -4 -10z"/> <path d="M3060 2350 c0 -5 5 -10 10 -10 6 0 10 5 10 10 0 6 -4 10 -10 10 -5 0 -10 -4 -10 -10z"/> <path d="M1710 2149 c0 -5 5 -7 10 -4 6 3 10 8 10 11 0 2 -4 4 -10 4 -5 0 -10 -5 -10 -11z"/> <path d="M2798 1863 c7 -3 16 -2 19 1 4 3 -2 6 -13 5 -11 0 -14 -3 -6 -6z"/> <path d="M812 1624 c-7 -8 -8 -14 -3 -14 10 0 25 19 20 25 -2 1 -10 -3 -17 -11z"/> <path d="M3680 1605 c0 -8 2 -15 4 -15 2 0 6 7 10 15 3 8 1 15 -4 15 -6 0 -10 -7 -10 -15z"/> <path d="M1200 1086 c0 -2 7 -7 16 -10 8 -3 12 -2 9 4 -6 10 -25 14 -25 6z"/> <path d="M1099 3683 c-13 -16 -12 -17 4 -4 9 7 17 15 17 17 0 8 -8 3 -21 -13z"/> <path d="M3991 2754 c0 -11 3 -14 6 -6 3 7 2 16 -1 19 -3 4 -6 -2 -5 -13z"/> <path d="M721 1324 c0 -11 3 -14 6 -6 3 7 2 16 -1 19 -3 4 -6 -2 -5 -13z"/> <path d="M1153 855 c0 -8 4 -12 9 -9 5 3 6 10 3 15 -9 13 -12 11 -12 -6z"/> <path d="M1848 523 c7 -3 16 -2 19 1 4 3 -2 6 -13 5 -11 0 -14 -3 -6 -6z"/> </g> </svg> 